<svg width="120" height="110" xmlns="http://www.w3.org/2000/svg"><style>rect, path, line { stroke: #000; stroke-width: 2; } .red { fill: hsl(0,100%,80%); } .yellow { fill: hsl(60,100%,80%); } .green { fill: hsl(120,100%,80%); } .teal { fill: hsl(180,100%,80%); } .blue { fill: hsl(240,100%,80%); } .purple { fill: hsl(300,100%,80%); } line { stroke-width: 2; } .l-red { stroke: hsl(0,75%,40%); } .l-yellow { stroke: hsl(60,75%,40%); } .l-green { stroke: hsl(120,75%,40%); } .l-teal { stroke: hsl(180,75%,40%); } .l-blue { stroke: hsl(240,75%,40%); } .l-purple { stroke: hsl(300,75%,40%); } text { text-anchor: middle; font-family: Helvetica, Arial, sans-serif; font-size: 22px; fill: #000; }</style><path class="l-yellow" d="M20 40l20 30"/><path class="l-green" d="M40 40l20 30"/><path class="l-teal" d="M60 40l20 30"/><path class="l-blue" d="M80 40l20 30"/><path class="l-red" d="M100 40l-80 30"/><path class="yellow" d="M10 10h20v30h-20z"/><path class="green" d="M30 10h20v30h-20z"/><path class="teal" d="M50 10h20v30h-20z"/><path class="blue" d="M70 10h20v30h-20z"/><path class="red" d="M90 10h20v30h-20z"/><text y="23" x="10" transform="translate(10 10)">2</text><text y="23" x="30" transform="translate(10 10)">3</text><text y="23" x="50" transform="translate(10 10)">4</text><text y="23" x="70" transform="translate(10 10)">5</text><text y="23" x="90" transform="translate(10 10)">1</text><path class="red" d="M10 70h20v30h-20z"/><path class="yellow" d="M30 70h20v30h-20z"/><path class="green" d="M50 70h20v30h-20z"/><path class="teal" d="M70 70h20v30h-20z"/><path class="blue" d="M90 70h20v30h-20z"/><text y="23" x="10" transform="translate(10 70)">1</text><text y="23" x="30" transform="translate(10 70)">2</text><text y="23" x="50" transform="translate(10 70)">3</text><text y="23" x="70" transform="translate(10 70)">4</text><text y="23" x="90" transform="translate(10 70)">5</text></svg>