<?xml version="1.0" standalone="yes"?>
<svg width="200" height="530" version="1.1" xmlns="http://www.w3.org/2000/svg">
	<style>
		rect, line, path { stroke: #000; stroke-width: 2; }
		.red { fill: hsl(0,100%,80%); }
		.yellow { fill: hsl(60,100%,80%); }
		.green { fill: hsl(120,100%,80%); }
		.teal { fill: hsl(180,100%,80%); }
		.blue { fill: hsl(240,100%,80%); }
		.purple { fill: hsl(300,100%,80%); }
		.l-red { stroke: hsl(0,75%,40%); }
		.l-yellow { stroke: hsl(60,75%,40%); }
		.l-green { stroke: hsl(120,75%,40%); }
		.l-teal { stroke: hsl(180,75%,40%); }
		.l-blue { stroke: hsl(240,75%,40%); }
		.l-purple { stroke: hsl(300,75%,40%); }
		text { text-anchor: middle; font-family: Helvetica, Arial, sans-serif; font-size: 22px; fill: #000; }
		ellipse { stroke-width: 1; stroke: #000; }
	</style>
	<g transform="translate(60,0)">
		<g transform="translate(10,10)">
			<line y1="30" x1="10" y2="60" x2="10" class="l-blue" />
			<line y1="30" x1="30" y2="60" x2="70" class="l-green" />
			<line y1="30" x1="50" y2="60" x2="50" class="l-yellow" />
			<line y1="30" x1="70" y2="60" x2="30" class="l-teal" />
			<line y1="30" x1="90" y2="60" x2="90" class="l-red" />
			<rect height="30" width="20" x="0"  class="blue" />
			<rect height="30" width="20" x="20" class="green" />
			<rect height="30" width="20" x="40" class="yellow" />
			<rect height="30" width="20" x="60" class="teal" />
			<rect height="30" width="20" x="80" class="red" />
			<text y="23" x="10">9</text>
			<text y="23" x="30">6</text>
			<text y="23" x="50">2</text>
			<text y="23" x="70">9</text>
			<text y="23" x="90">1</text>
		</g>
		<g transform="translate(10,70)">
			<line y1="30" x1="10" y2="60" x2="110" class="l-blue" />
			<line y1="30" x1="30" y2="60" x2="30" class="l-teal" />
			<line y1="30" x1="50" y2="60" x2="50" class="l-yellow" />
			<line y1="30" x1="70" y2="60" x2="70" class="l-green" />
			<line y1="30" x1="90" y2="60" x2="10" class="l-red" />
			<rect height="30" width="20" x="0"  class="blue" />
			<rect height="30" width="20" x="20" class="teal" />
			<rect height="30" width="20" x="40" class="yellow" />
			<rect height="30" width="20" x="60" class="green" />
			<rect height="30" width="20" x="80" class="red" />
			<text y="23" x="10">9</text>
			<text y="23" x="30">9</text>
			<text y="23" x="50">2</text>
			<text y="23" x="70">6</text>
			<text y="23" x="90">1</text>
			<g transform="translate(-35,3)">
				<line y1="0" x1="0" y2="12" x2="-12" />
				<line y1="0" x1="0" y2="12" x2="12" />
				<line y1="12" x1="-12" y2="24" x2="-24" />
				<line y1="12" x1="-12" y2="24" x2="0" />
  				<ellipse ry="6" rx="6" cy="0" cx="0" class="blue" />
  				<ellipse ry="6" rx="6" cy="12" cx="-12" class="teal" />
  				<ellipse ry="6" rx="6" cy="12" cx="12" class="yellow" />
  				<ellipse ry="6" rx="6" cy="24" cx="-24" class="green" />
  				<ellipse ry="6" rx="6" cy="24" cx="0" class="red" />
  			</g>
		</g>
		<g transform="translate(10,130)">
			<line y1="30" x1="10" y2="60" x2="70" class="l-red" />
			<line y1="30" x1="30" y2="60" x2="10" class="l-teal" />
			<line y1="30" x1="50" y2="60" x2="50" class="l-yellow" />
			<line y1="30" x1="70" y2="60" x2="30" class="l-green" />
			<line y1="30" x1="110" y2="60" x2="110" class="l-blue" />
			<rect height="30" width="20" x="0"  class="red" />
			<rect height="30" width="20" x="20" class="teal" />
			<rect height="30" width="20" x="40" class="yellow" />
			<rect height="30" width="20" x="60" class="green" />
			<rect height="30" width="20" x="100" class="blue" />
			<text y="23" x="10">1</text>
			<text y="23" x="30">9</text>
			<text y="23" x="50">2</text>
			<text y="23" x="70">6</text>
			<text y="23" x="110">9</text>
		</g>
		<g transform="translate(10,190)">
			<line y1="30" x1="10" y2="60" x2="90" class="l-teal" />
			<line y1="30" x1="30" y2="60" x2="30" class="l-green" />
			<line y1="30" x1="50" y2="60" x2="50" class="l-yellow" />
			<line y1="30" x1="70" y2="60" x2="10" class="l-red" />
			<line y1="30" x1="110" y2="60" x2="110" class="l-blue" />
			<rect height="30" width="20" x="0"  class="teal" />
			<rect height="30" width="20" x="20" class="green" />
			<rect height="30" width="20" x="40" class="yellow" />
			<rect height="30" width="20" x="60" class="red" />
			<rect height="30" width="20" x="100" class="blue" />
			<text y="23" x="10">9</text>
			<text y="23" x="30">6</text>
			<text y="23" x="50">2</text>
			<text y="23" x="70">1</text>
			<text y="23" x="110">6</text>
			<g transform="translate(-35,3)">
				<line y1="0" x1="0" y2="12" x2="-12" />
				<line y1="0" x1="0" y2="12" x2="12" />
				<line y1="12" x1="-12" y2="24" x2="-24" />
  				<ellipse ry="6" rx="6" cy="0" cx="0" class="teal" />
  				<ellipse ry="6" rx="6" cy="12" cx="-12" class="green" />
  				<ellipse ry="6" rx="6" cy="12" cx="12" class="yellow" />
  				<ellipse ry="6" rx="6" cy="24" cx="-24" class="red" />
  			</g>
		</g>
		<g transform="translate(10,250)">
			<line y1="30" x1="10" y2="60" x2="30" class="l-red" />
			<line y1="30" x1="30" y2="60" x2="10" class="l-green" />
			<line y1="30" x1="50" y2="60" x2="50" class="l-yellow" />
			<line y1="30" x1="90" y2="60" x2="90" class="l-teal" />
			<line y1="30" x1="110" y2="60" x2="110" class="l-blue" />
			<rect height="30" width="20" x="0"  class="red" />
			<rect height="30" width="20" x="20" class="green" />
			<rect height="30" width="20" x="40" class="yellow" />
			<rect height="30" width="20" x="80" class="teal" />
			<rect height="30" width="20" x="100" class="blue" />
			<text y="23" x="10">1</text>
			<text y="23" x="30">6</text>
			<text y="23" x="50">2</text>
			<text y="23" x="90">9</text>
			<text y="23" x="110">9</text>
		</g>
		<g transform="translate(10,310)">
			<line y1="30" x1="10" y2="60" x2="70" class="l-green" />
			<line y1="30" x1="30" y2="60" x2="30" class="l-red" />
			<line y1="30" x1="50" y2="60" x2="10" class="l-yellow" />
			<line y1="30" x1="90" y2="60" x2="90" class="l-teal" />
			<line y1="30" x1="110" y2="60" x2="110" class="l-blue" />
			<rect height="30" width="20" x="0"  class="green" />
			<rect height="30" width="20" x="20" class="red" />
			<rect height="30" width="20" x="40" class="yellow" />
			<rect height="30" width="20" x="80" class="teal" />
			<rect height="30" width="20" x="100" class="blue" />
			<text y="23" x="10">6</text>
			<text y="23" x="30">1</text>
			<text y="23" x="50">2</text>
			<text y="23" x="90">9</text>
			<text y="23" x="110">9</text>
			<g transform="translate(-35,9)">
				<line y1="0" x1="0" y2="12" x2="-12" />
				<line y1="0" x1="0" y2="12" x2="12" />
  				<ellipse ry="6" rx="6" cy="0" cx="0" class="green" />
  				<ellipse ry="6" rx="6" cy="12" cx="-12" class="red" />
  				<ellipse ry="6" rx="6" cy="12" cx="12" class="yellow" />
  			</g>
		</g>
		<g transform="translate(10,370)">
			<line y1="30" x1="10" y2="60" x2="10" class="l-yellow" />
			<line y1="30" x1="30" y2="60" x2="30" class="l-red" />
			<line y1="30" x1="70" y2="60" x2="70" class="l-green" />
			<line y1="30" x1="90" y2="60" x2="90" class="l-teal" />
			<line y1="30" x1="110" y2="60" x2="110" class="l-blue" />
			<rect height="30" width="20" x="0"  class="yellow" />
			<rect height="30" width="20" x="20" class="red" />
			<rect height="30" width="20" x="60" class="green" />
			<rect height="30" width="20" x="80" class="teal" />
			<rect height="30" width="20" x="100" class="blue" />
			<text y="23" x="10">2</text>
			<text y="23" x="30">1</text>
			<text y="23" x="70">6</text>
			<text y="23" x="90">9</text>
			<text y="23" x="110">9</text>
		</g>
		<g transform="translate(10,430)">
			<line y1="30" x1="10" y2="60" x2="50" class="l-yellow" />
			<line y1="30" x1="30" y2="60" x2="30" class="l-red" />
			<line y1="30" x1="70" y2="60" x2="70" class="l-green" />
			<line y1="30" x1="90" y2="60" x2="90" class="l-teal" />
			<line y1="30" x1="110" y2="60" x2="110" class="l-blue" />
			<rect height="30" width="20" x="0"  class="yellow" />
			<rect height="30" width="20" x="20" class="red" />
			<rect height="30" width="20" x="60" class="green" />
			<rect height="30" width="20" x="80" class="teal" />
			<rect height="30" width="20" x="100" class="blue" />
			<text y="23" x="10">2</text>
			<text y="23" x="30">1</text>
			<text y="23" x="70">6</text>
			<text y="23" x="90">9</text>
			<text y="23" x="110">9</text>
			<g transform="translate(-35,9)">
				<line y1="0" x1="0" y2="12" x2="-12" />
  				<ellipse ry="6" rx="6" cy="0" cx="0" class="yellow" />
  				<ellipse ry="6" rx="6" cy="12" cx="-12" class="red" />
  			</g>
		</g>
		<g transform="translate(10,490)">
			<rect height="30" width="20" x="20"  class="red" />
			<rect height="30" width="20" x="40" class="yellow" />
			<rect height="30" width="20" x="60" class="green" />
			<rect height="30" width="20" x="80" class="teal" />
			<rect height="30" width="20" x="100" class="blue" />
			<text y="23" x="30">1</text>
			<text y="23" x="50">2</text>
			<text y="23" x="70">6</text>
			<text y="23" x="90">9</text>
			<text y="23" x="110">9</text>
		</g>
	</g>
</svg>
