<svg width="360" height="180" xmlns="http://www.w3.org/2000/svg"><style>rect,ellipse,path { stroke: #000; stroke-width: 2; } .red { fill: hsl(0,100%,80%); } .yellow { fill: hsl(60,100%,80%); } .green { fill: hsl(120,100%,80%); } .teal { fill: hsl(180,100%,80%); } .blue { fill: hsl(240,100%,80%); } .purple { fill: hsl(300,100%,80%); } .black { fill: #000; } .white { fill: #FFF; } line { stroke-width: 2; stroke: #000; } text { text-anchor: middle; font-family: Helvetica, Arial, sans-serif; font-size: 22px; fill: #000; } ellipse { stroke-width: 2; stroke: #000; fill: #FFF } path { stroke: #000; stroke-width: 2; }</style><path d="M30 30h300"/><g transform="translate(30 30)"><ellipse ry="20" rx="20"/><text y="7">15</text></g><g transform="translate(210 30)"><path d="M0 0v60"/><path d="M0 0l-60 60"/><path d="M0 0l-120 60"/><ellipse ry="20" rx="20"/><text y="7">5</text><g transform="translate(0 60)"><ellipse ry="20" rx="20"/><text y="7">8</text></g><g transform="translate(-60 60)"><path d="M0 0v60"/><ellipse ry="20" rx="20"/><text y="7">6</text><g transform="translate(0 60)"><ellipse ry="20" rx="20"/><text y="7">24</text></g></g><g transform="translate(-120 60)"><path d="M0 0v60"/><ellipse ry="20" rx="20" class="black"/><text y="7" class="white">12</text><g transform="translate(0 60)"><ellipse ry="20" rx="20"/><text y="7">13</text></g></g></g><g transform="translate(270 30)"><ellipse ry="20" rx="20"/><text y="7">9</text></g><g transform="translate(330 30)"><path d="M0 0v60"/><ellipse ry="20" rx="20" class="red"/><text y="7">2</text><g transform="translate(0 60)"><ellipse ry="20" rx="20"/><text y="7">4</text></g></g></svg>