<svg width="710" height="220" xmlns="http://www.w3.org/2000/svg"><style>rect { stroke: #000; stroke-width: 2; } rect.red,ellipse.red { fill: hsl(0,100%,80%); } rect.yellow,ellipse.yellow { fill: hsl(60,100%,80%); } rect.green,ellipse.green { fill: hsl(120,100%,80%); } rect.teal,ellipse.teal { fill: hsl(180,100%,80%); } rect.blue,ellipse.blue { fill: hsl(240,100%,80%); } rect.purple,ellipse.purple { fill: hsl(300,100%,80%); } .dot-red,.dot-green,.dot-blue { stroke-width:3; } .dot-red { stroke: hsl(0,100%,80%); fill: hsl(0,100%,95%); } .dot-green { stroke: hsl(120,100%,80%); fill: hsl(120,100%,95%); } .dot-blue { stroke: hsl(240,100%,80%); fill: hsl(240,100%,95%); } .black { fill: #000; } .white { fill: #fff; } line { stroke-width: 2; stroke: #000; } text { text-anchor: middle; font-family: Helvetica, Arial, sans-serif; font-size: 22px; fill: #000; } ellipse { stroke-width: 2; stroke: #000; fill: #FFF } path { stroke: #000; stroke-width: 2; } .order { font-size:18px; }</style><g transform="translate(40 60)"><text y="-37" class="order">Order 0</text><path class="dot-blue" d="M-30-30h60v60h-60z"/><ellipse ry="20" rx="20"/><text y="7">13</text></g><g transform="translate(40 60) translate(90)"><text y="-37" x="45" class="order">Order 1</text><path class="dot-green" d="M-30-30h150v180h-150z"/><path d="M0 0v60"/><ellipse ry="20" rx="20"/><text y="7">4</text><g transform="translate(0 60)"><ellipse ry="20" rx="20"/><text y="7">10</text></g><path d="M0 0v60"/><ellipse ry="20" rx="20" class="black"/><text y="7" class="white">4</text><g transform="translate(0 60)"><path d="M0 0v60"/><ellipse ry="20" rx="20"/><text y="7">10</text><ellipse ry="20" rx="20"/><text y="7">10</text></g></g><g transform="translate(40 60) translate(330)"><text y="-37" x="120" class="order">Order 2</text><path class="dot-red" d="M-90-30h420v180h-420z"/><path d="M0 0v60"/><path d="M0 0l-60 60"/><ellipse ry="20" rx="20"/><text y="7">1</text><g transform="translate(0 60)"><ellipse ry="20" rx="20"/><text y="7">9</text></g><g transform="translate(-60 60)"><ellipse ry="20" rx="20" class="black"/><text y="7" class="white">7</text></g><g transform="translate(150)"><path d="M0 0v60"/><path d="M0 0l-60 60"/><ellipse ry="20" rx="20"/><text y="7">1</text><g transform="translate(0 60)"><ellipse ry="20" rx="20"/><text y="7">9</text></g><g transform="translate(-60 60)"><path d="M0 0v60"/><ellipse ry="20" rx="20"/><text y="7">7</text><g transform="translate(0 60)"><ellipse ry="20" rx="20"/><text y="7">15</text></g></g></g><g transform="translate(300)"><path d="M0 0v60"/><path d="M0 0l-60 60"/><ellipse ry="20" rx="20" class="black"/><text y="7" class="white">1</text><g transform="translate(0 60)"><path d="M0 0v60"/><ellipse ry="20" rx="20"/><text y="7">9</text><ellipse ry="20" rx="20"/><text y="7">15</text></g><g transform="translate(-60 60)"><path d="M0 0v60"/><ellipse ry="20" rx="20"/><text y="7">7</text><g transform="translate(0 60)"><ellipse ry="20" rx="20" class="black"/><text y="7" class="white">15</text></g></g></g></g></svg>