<?xml version="1.0" standalone="yes"?>
<svg width="370" height="180" version="1.1" xmlns="http://www.w3.org/2000/svg">
	<style>
		ellipse.red { fill: hsl(0,100%,80%); }
		ellipse.yellow { fill: hsl(60,100%,80%); }
		ellipse.green { fill: hsl(120,100%,80%); }
		ellipse.teal { fill: hsl(180,100%,80%); }
		ellipse.blue { fill: hsl(240,100%,80%); }
		ellipse.purple { fill: hsl(300,100%,80%); }
		line, path { stroke-width: 2; stroke: #000; }
		marker path, path path { stroke-width: 0; }
		text { text-anchor: middle; font-family: Helvetica, Arial, sans-serif; font-size: 22px; fill: #000; }
		text.small { font-size: 14px; font-weight:bold; }
		ellipse { stroke-width: 2; stroke: #000; fill: #FFF }
		path { stroke: #000; }
	</style>
	<marker id="arrow" viewBox="0 0 10 10" refX="7" refY="5" markerWidth="4" markerHeight="4" orient="auto">
		<path d="M 0 0 L 10 5 L 0 10" stroke-width="0"/>
	</marker>
	<g>
		<g transform="translate(100,30)">
			<path d="m0 0 l-30,50" fill="none" stroke-width="2"/>
			<path d="m0 0 l15,25" fill="none" stroke-width="2"/>
			<ellipse ry="20" rx="20" class="blue" />
			<text x="0" y="7">c</text>
			<text x="20" y="40.333333">g</text>
		</g>
		<g transform="translate(70,80)">
			<path d="m0 0 l-30,50" fill="none" stroke-width="2"/>
			<path d="m0 0 l15,25" fill="none" stroke-width="2"/>
			<ellipse ry="20" rx="20" class="green" />
			<text x="0" y="7">b</text>
			<text x="20" y="40.333333">f</text>
		</g>
		<g transform="translate(40,130)">
			<path d="m0 0 l-15,25" fill="none" stroke-width="2"/>
			<path d="m0 0 l15,25" fill="none" stroke-width="2"/>
			<ellipse ry="20" rx="20" cy="0" cx="0" class="red" />
			<text x="0" y="7">a</text>
			<text x="-20" y="40.333333">d</text>
			<text x="20" y="40.333333">e</text>
		</g>
		<g transform="translate(260,30)">
			<path d="m0 0 l30,50" fill="none" stroke-width="2"/>
			<path d="m0 0 l-15,25" fill="none" stroke-width="2"/>
			<ellipse ry="20" rx="20" cy="0" cx="0" class="red" />
			<text x="0" y="7">a</text>
			<text x="-20" y="40.333333">d</text>
		</g>
		<g transform="translate(290,80)">
			<path d="m0 0 l30,50" fill="none" stroke-width="2"/>
			<path d="m0 0 l-15,25" fill="none" stroke-width="2"/>
			<ellipse ry="20" rx="20" cy="0" cx="0" class="green" />
			<text x="0" y="7">b</text>
			<text x="-20" y="40.333333">e</text>
		</g>
		<g transform="translate(320,130)">
			<path d="m0 0 l-15,25" fill="none" stroke-width="2"/>
			<path d="m0 0 l15,25" fill="none" stroke-width="2"/>
			<ellipse ry="20" rx="20" cy="0" cx="0" class="blue" />
			<text x="0" y="7">c</text>
			<text x="-20" y="40.333333">f</text>
			<text x="20" y="40.333333">g</text>
		</g>
	</g>
	<g transform="translate(-10,30)">
		<text x="190" y="32" class="small">zigzig(a)</text>
		<line x1="140" y1="40" x2="237" y2="40" marker-end="url(#arrow)" />
		<text x="190" y="82" class="small">zigzig(c)</text>
		<line x1="240" y1="90" x2="143" y2="90" marker-end="url(#arrow)" />
	</g>
</svg>
