<svg width="340" height="160" xmlns="http://www.w3.org/2000/svg"><style>rect { stroke: #000; stroke-width: 2; } rect.red,ellipse.red { fill: hsl(0,100%,80%); } rect.yellow,ellipse.yellow { fill: hsl(60,100%,80%); } rect.green,ellipse.green { fill: hsl(120,100%,80%); } rect.teal,ellipse.teal { fill: hsl(180,100%,80%); } rect.blue,ellipse.blue { fill: hsl(240,100%,80%); } rect.purple,ellipse.purple { fill: hsl(300,100%,80%); } line, path { stroke-width: 2; stroke: #000; } text { text-anchor: middle; font-family: Helvetica, Arial, sans-serif; font-size: 22px; fill: #000; } ellipse { stroke-width: 2; stroke: #000; fill: #FFF }</style><g transform="translate(170 30)"><path d="M0 0l-90 50" fill="none"/><path d="M0 0l90 50" fill="none"/><ellipse ry="20" rx="20" class="red"/><text y="7">1</text></g><g transform="translate(170 30) translate(-90 50)"><path d="M0 0l-50 50" fill="none"/><path d="M0 0l50 50" fill="none"/><ellipse ry="20" rx="20" class="yellow"/><text y="7">2</text><g transform="translate(-50 50)"><ellipse ry="20" rx="20" class="yellow"/><text y="7">3</text></g><g transform="translate(50 50)"><ellipse ry="20" rx="20" class="yellow"/><text y="7">9</text></g></g><g transform="translate(170 30) translate(90 50)"><path d="M0 0l-50 50" fill="none"/><path d="M0 0l50 50" fill="none"/><ellipse ry="20" rx="20" class="yellow"/><text y="7">4</text><g transform="translate(-50 50)"><ellipse ry="20" rx="20" class="yellow"/><text y="7">8</text></g><g transform="translate(50 50)"><ellipse ry="20" rx="20" class="yellow"/><text y="7">6</text></g></g></svg>