<svg width="200" height="190" xmlns="http://www.w3.org/2000/svg"><style>rect, path, line { stroke: #000; stroke-width: 2; } .red { fill: hsl(0,100%,80%); } .yellow { fill: hsl(60,100%,80%); } .green { fill: hsl(120,100%,80%); } .teal { fill: hsl(180,100%,80%); } .blue { fill: hsl(240,100%,80%); } .purple { fill: hsl(300,100%,80%); } line { stroke-width: 2; } .l-red { stroke: hsl(0,75%,40%); } .l-yellow { stroke: hsl(60,75%,40%); } .l-green { stroke: hsl(120,75%,40%); } .l-teal { stroke: hsl(180,75%,40%); } .l-blue { stroke: hsl(240,75%,40%); } .l-purple { stroke: hsl(300,75%,40%); } text { text-anchor: middle; font-family: Helvetica, Arial, sans-serif; font-size: 22px; fill: #000; } .algorithm { fill: #FFF; } marker path, path path { stroke-width: 1; }</style><marker id="arrow" viewBox="-1 0 12 10" refX="10.5" refY="5" markerWidth="8" markerHeight="8" orient="auto"><path d="M0 0l10 5-10 5" fill="transparent"/></marker><path marker-end="url(#arrow)" d="M100 40v110"/><path class="teal" d="M50 10h20v30h-20z"/><path class="green" d="M70 10h20v30h-20z"/><path class="blue" d="M90 10h20v30h-20z"/><path class="yellow" d="M110 10h20v30h-20z"/><path class="red" d="M130 10h20v30h-20z"/><text y="23" x="10" transform="translate(40) translate(10 10)">4</text><text y="23" x="30" transform="translate(40) translate(10 10)">3</text><text y="23" x="50" transform="translate(40) translate(10 10)">5</text><text y="23" x="70" transform="translate(40) translate(10 10)">2</text><text y="23" x="90" transform="translate(40) translate(10 10)">1</text><path class="red" d="M50 150h20v30h-20z"/><path class="yellow" d="M70 150h20v30h-20z"/><path class="green" d="M90 150h20v30h-20z"/><path class="teal" d="M110 150h20v30h-20z"/><path class="blue" d="M130 150h20v30h-20z"/><text y="23" x="10" transform="translate(40) translate(10 150)">1</text><text y="23" x="30" transform="translate(40) translate(10 150)">2</text><text y="23" x="50" transform="translate(40) translate(10 150)">3</text><text y="23" x="70" transform="translate(40) translate(10 150)">4</text><text y="23" x="90" transform="translate(40) translate(10 150)">5</text><path d="M10 70h180v40h-180z"/><text x="100" y="98" class="algorithm">Algorithm</text></svg>