<?xml version="1.0" standalone="yes"?>
<svg width="120" height="110" version="1.1" xmlns="http://www.w3.org/2000/svg">
	<style>
		rect, path, line { stroke: #000; stroke-width: 2; }
		.red { fill: hsl(0,100%,80%); }
		.yellow { fill: hsl(60,100%,80%); }
		.green { fill: hsl(120,100%,80%); }
		.teal { fill: hsl(180,100%,80%); }
		.blue { fill: hsl(240,100%,80%); }
		.purple { fill: hsl(300,100%,80%); }
		line { stroke-width: 2; }
		.l-red { stroke: hsl(0,75%,40%); }
		.l-yellow { stroke: hsl(60,75%,40%); }
		.l-green { stroke: hsl(120,75%,40%); }
		.l-teal { stroke: hsl(180,75%,40%); }
		.l-blue { stroke: hsl(240,75%,40%); }
		.l-purple { stroke: hsl(300,75%,40%); }
		text { text-anchor: middle; font-family: Helvetica, Arial, sans-serif; font-size: 22px; fill: #000; }
	</style>
	<g>
		<g transform="translate(10,10)">
			<line y1="30" x1="10" y2="60" x2="30" class="l-yellow" />
			<line y1="30" x1="30" y2="60" x2="50" class="l-green" />
			<line y1="30" x1="50" y2="60" x2="70" class="l-teal" />
			<line y1="30" x1="70" y2="60" x2="90" class="l-blue" />
			<line y1="30" x1="90" y2="60" x2="10" class="l-red" />
			<rect height="30" width="20" x="0"  class="yellow" />
			<rect height="30" width="20" x="20" class="green" />
			<rect height="30" width="20" x="40" class="teal" />
			<rect height="30" width="20" x="60" class="blue" />
			<rect height="30" width="20" x="80" class="red" />
			<text y="23" x="10">2</text>
			<text y="23" x="30">3</text>
			<text y="23" x="50">4</text>
			<text y="23" x="70">5</text>
			<text y="23" x="90">1</text>
		</g>
		<g transform="translate(10,70)">
			<rect height="30" width="20" x="0"  class="red" />
			<rect height="30" width="20" x="20" class="yellow" />
			<rect height="30" width="20" x="40" class="green" />
			<rect height="30" width="20" x="60" class="teal" />
			<rect height="30" width="20" x="80" class="blue" />
			<text y="23" x="10">1</text>
			<text y="23" x="30">2</text>
			<text y="23" x="50">3</text>
			<text y="23" x="70">4</text>
			<text y="23" x="90">5</text>
		</g>
	</g>
</svg>
