<?xml version="1.0" standalone="yes"?>
<svg width="1000" height="500" version="1.1" xmlns="http://www.w3.org/2000/svg">
  <style>
    rect, path, line { stroke: #000; stroke-width: 2; }
    .red { fill: hsl(0,100%,80%); }
    .yellow { fill: hsl(60,100%,80%); }
    .green { fill: hsl(120,100%,80%); }
    .teal { fill: hsl(180,100%,80%); }
    .blue { fill: hsl(240,100%,80%); }
    .purple { fill: hsl(300,100%,80%); }
    line { stroke-width: 2; }
    .l-red { stroke: hsl(0,75%,40%); }
    .l-yellow { stroke: hsl(60,75%,40%); }
    .l-green { stroke: hsl(120,75%,40%); }
    .l-teal { stroke: hsl(180,75%,40%); }
    .l-blue { stroke: hsl(240,75%,40%); }
    .l-purple { stroke: hsl(300,75%,40%); }
    text { text-anchor: middle; font-family: Helvetica, Arial, sans-serif; font-size: 22px; fill: #000; }
    .small { font-size: 18px; }
    .right-align { text-anchor: end; }
    .no-stroke { stroke-width: 0; }
    marker path, path path { stroke-width: 1; }
    path {fill: transparent;}
  </style>
  <g transform="translate(10,10)">
    <path d="m41,439l0,-1,l93,0l93,0l93,-215l93,-159l93,0l93,-21l93,0l93,-26l93,0l93,-8l-930,0z" class="blue no-stroke" />
    <path d="m40,438l93,0l93,0l93,-215l93,-159l93,0l93,-21l93,0l93,-26l93,0l93,-7" class="l-blue" />
    <path d="m40,10l0,430l930,0" />
    <path d="m39,10l5,0" />
    <path d="m39,225l5,0" />
    <path d="m510,440l0,-5" />
    <path d="m969,440l0,-5" />
    <text x="240" y="-10" transform="rotate(90)">Visual progress (%)</text>
    <text x="510" y="470">Time (s)</text>
    <text x="35" y="20" class="small right-align">100</text>
    <text x="35" y="458" class="small right-align">0</text>
    <text x="970" y="458" class="small right-align">1</text>
  </g>
</svg>
