<svg width="600" height="145" xmlns="http://www.w3.org/2000/svg"><style>text { text-anchor: middle; font-family: Helvetica, Arial, sans-serif; font-size: 12px; fill: #000; } path { stroke: #000; stroke-width: 2; }</style><path d="M10 115h20v-.001h-20v.001" fill="hsl(0,100%,80%)"/><path d="M30 115h20v-.09h-20v.09" fill="hsl(0.1,100%,80%)"/><path d="M50 115h20v-.358h-20v.358" fill="hsl(0.4,100%,80%)"/><path d="M70 115h20v-1.075h-20v1.075" fill="hsl(1.2,100%,80%)"/><path d="M90 115h20v-2.688h-20v2.688" fill="hsl(3.1,100%,80%)"/><path d="M110 115h20v-5.824h-20v5.824" fill="hsl(6.7,100%,80%)"/><path d="M130 115h20v-11.2h-20v11.2" fill="hsl(12.9,100%,80%)"/><path d="M150 115h20v-19.456h-20v19.456" fill="hsl(22.4,100%,80%)"/><path d="M170 115h20v-30.912h-20v30.912" fill="hsl(35.6,100%,80%)"/><path d="M190 115h20v-45.248h-20v45.248" fill="hsl(52.2,100%,80%)"/><path d="M210 115h20v-61.376h-20v61.376" fill="hsl(70.7,100%,80%)"/><path d="M230 115h20v-77.504h-20v77.504" fill="hsl(89.3,100%,80%)"/><path d="M250 115h20v-91.392h-20v91.392" fill="hsl(105.3,100%,80%)"/><path d="M270 115h20v-100.8h-20v100.8" fill="hsl(116.1,100%,80%)"/><path d="M290 115h20v-104.128h-20v104.128" fill="hsl(120,100%,80%)"/><path d="M310 115h20v-100.8h-20v100.8" fill="hsl(116.1,100%,80%)"/><path d="M330 115h20v-91.392h-20v91.392" fill="hsl(105.3,100%,80%)"/><path d="M350 115h20v-77.504h-20v77.504" fill="hsl(89.3,100%,80%)"/><path d="M370 115h20v-61.376h-20v61.376" fill="hsl(70.7,100%,80%)"/><path d="M390 115h20v-45.248h-20v45.248" fill="hsl(52.2,100%,80%)"/><path d="M410 115h20v-30.912h-20v30.912" fill="hsl(35.6,100%,80%)"/><path d="M430 115h20v-19.456h-20v19.456" fill="hsl(22.4,100%,80%)"/><path d="M450 115h20v-11.2h-20v11.2" fill="hsl(12.9,100%,80%)"/><path d="M470 115h20v-5.824h-20v5.824" fill="hsl(6.7,100%,80%)"/><path d="M490 115h20v-2.688h-20v2.688" fill="hsl(3.1,100%,80%)"/><path d="M510 115h20v-1.075h-20v1.075" fill="hsl(1.2,100%,80%)"/><path d="M530 115h20v-.358h-20v.358" fill="hsl(0.4,100%,80%)"/><path d="M550 115h20v-.09h-20v.09" fill="hsl(0.1,100%,80%)"/><path d="M570 115h20v-.013h-20v.013" fill="hsl(0,100%,80%)"/><text y="15" x="10" transform="translate(10 115)">7</text><text y="15" x="30" transform="translate(10 115)">8</text><text y="15" x="50" transform="translate(10 115)">9</text><text y="15" x="70" transform="translate(10 115)">10</text><text y="15" x="90" transform="translate(10 115)">11</text><text y="15" x="110" transform="translate(10 115)">12</text><text y="15" x="130" transform="translate(10 115)">13</text><text y="15" x="150" transform="translate(10 115)">14</text><text y="15" x="170" transform="translate(10 115)">15</text><text y="15" x="190" transform="translate(10 115)">16</text><text y="15" x="210" transform="translate(10 115)">17</text><text y="15" x="230" transform="translate(10 115)">18</text><text y="15" x="250" transform="translate(10 115)">19</text><text y="15" x="270" transform="translate(10 115)">20</text><text y="15" x="290" transform="translate(10 115)">21</text><text y="15" x="310" transform="translate(10 115)">22</text><text y="15" x="330" transform="translate(10 115)">23</text><text y="15" x="350" transform="translate(10 115)">24</text><text y="15" x="370" transform="translate(10 115)">25</text><text y="15" x="390" transform="translate(10 115)">26</text><text y="15" x="410" transform="translate(10 115)">27</text><text y="15" x="430" transform="translate(10 115)">28</text><text y="15" x="450" transform="translate(10 115)">29</text><text y="15" x="470" transform="translate(10 115)">30</text><text y="15" x="490" transform="translate(10 115)">31</text><text y="15" x="510" transform="translate(10 115)">32</text><text y="15" x="530" transform="translate(10 115)">33</text><text y="15" x="550" transform="translate(10 115)">34</text><text y="15" x="570" transform="translate(10 115)">35</text></svg>