<?xml version="1.0" standalone="yes"?>
<svg width="780" height="380" version="1.1" xmlns="http://www.w3.org/2000/svg">
	<style>
		rect, path, line { stroke: #000; stroke-width: 2; }
		.red { fill: hsl(0,100%,80%); }
		.yellow { fill: hsl(60,100%,80%); }
		.green { fill: hsl(120,100%,80%); }
		.teal { fill: hsl(180,100%,80%); }
		.blue { fill: hsl(240,100%,80%); }
		.purple { fill: hsl(300,100%,80%); }
		text { font-family: Helvetica, Arial, sans-serif; font-size: 22px; fill: #000; }
		.dotted { stroke-dasharray: 6, 3; }
		marker path, path path { stroke-width: 1; stroke-dasharray: 0; }
	</style>
	<marker id="closed-triangle" viewBox="-1 0 12 10" refX="10.5" refY="5" markerWidth="8" markerHeight="8" orient="auto">
		<path d="M 0 0 L 10 5 L 0 10z" stroke-width="1" stroke-dasharray="0" fill="#fff"/>
	</marker>
	<marker id="diamond" viewBox="0 -1 10 12" refX="10" refY="5" markerWidth="14" markerHeight="7" orient="auto" preserveAspectRatio="none">
		<path d="m5 0l5 5l-5 5l-5 -5l5 -5z" stroke-width="1" fill="#fff"/>
	</marker>
	<marker id="arrow" viewBox="-1 0 12 10" refX="10.5" refY="5" markerWidth="8" markerHeight="8" orient="auto">
		<path d="M 0 0 L 10 5 L 0 10" stroke-width="1" stroke-dasharray="0" fill="transparent"/>
	</marker>
	<g>
		<g transform="translate(10,25)">
			<rect x="0" y="0" width="320" height="60" class="yellow" />
			<text x="160" y="21" text-anchor="middle" font-weight="bold" font-style="italic">FlyweightFactory</text>
			<line x1="0" y1="28" x2="320" y2="28" />
			<text x="13" y="51" text-anchor="middle">+</text>
			<text x="30" y="51">get(key : Object) : Flyweight</text>
		</g>
		<g transform="translate(390,10)">
			<rect x="0" y="0" width="360" height="90" class="yellow" />
			<text x="180" y="21" text-anchor="middle" font-weight="bold">«Interface»</text>
			<text x="180" y="51" text-anchor="middle" font-weight="bold">Flyweight</text>
			<line x1="0" y1="58" x2="360" y2="58" />
			<text x="13" y="81" text-anchor="middle">+</text>
			<text x="30" y="81">operation(extrinsicData : Object)</text>
		</g>
		<g transform="translate(120,190)">
			<rect x="0" y="0" width="100" height="30" class="yellow" />
			<text x="50" y="21" text-anchor="middle" font-weight="bold">Client</text>
		</g>
		<g transform="translate(390,160)">
			<rect x="0" y="0" width="360" height="90" class="yellow" />
			<text x="180" y="21" text-anchor="middle" font-weight="bold">ConcreteFlyweight</text>
			<line x1="0" y1="28" x2="360" y2="28" />
			<text x="13" y="51" text-anchor="middle">-</text>
			<text x="30" y="51">intrinsicState : Object</text>
			<line x1="0" y1="58" x2="360" y2="58" />
			<text x="13" y="81" text-anchor="middle">+</text>
			<text x="30" y="81">operation(extrinsicData : Object)</text>
		</g>
		<path d="m170,190l0,-105" fill="transparent" class="dotted" marker-end="url(#arrow)" />
		<path d="m220,205l170,0" class="dotted" fill="transparent" marker-end="url(#arrow)" />
		<path d="m390,55l-60,0" fill="transparent" stroke-width="2" marker-end="url(#diamond)" />
		<path d="m570,160l0,-60" fill="transparent" class="dotted" marker-end="url(#closed-triangle)" />
	</g>
</svg>
