<?xml version="1.0" standalone="yes"?>
<svg width="200" height="350" version="1.1" xmlns="http://www.w3.org/2000/svg">
	<style>
		rect, line, path { stroke: #000; stroke-width: 2; }
		.red { fill: hsl(0,100%,80%); }
		.yellow { fill: hsl(60,100%,80%); }
		.green { fill: hsl(120,100%,80%); }
		.teal { fill: hsl(180,100%,80%); }
		.blue { fill: hsl(240,100%,80%); }
		.purple { fill: hsl(300,100%,80%); }
		.l-red { stroke: hsl(0,75%,40%); }
		.l-yellow { stroke: hsl(60,75%,40%); }
		.l-green { stroke: hsl(120,75%,40%); }
		.l-teal { stroke: hsl(180,75%,40%); }
		.l-blue { stroke: hsl(240,75%,40%); }
		.l-purple { stroke: hsl(300,75%,40%); }
		text { text-anchor: middle; font-family: Helvetica, Arial, sans-serif; font-size: 22px; fill: #000; }
	</style>
	<g>
		<g transform="translate(10,10)">
			<line y1="30" x1="50" y2="60" x2="30" class="l-teal" />
			<line y1="30" x1="70" y2="60" x2="50" class="l-green" />
			<line y1="30" x1="90" y2="60" x2="110" class="l-yellow" />
			<line y1="30" x1="110" y2="60" x2="90" class="l-blue" />
			<line y1="30" x1="130" y2="60" x2="150" class="l-red" />
			<rect height="30" width="20" x="40"  class="teal" />
			<rect height="30" width="20" x="60" class="green" />
			<rect height="30" width="20" x="80" class="yellow" />
			<rect height="30" width="20" x="100" class="blue" />
			<rect height="30" width="20" x="120" class="red" />
			<text y="23" x="50">9</text>
			<text y="23" x="70">6</text>
			<text y="23" x="90">2</text>
			<text y="23" x="110">9</text>
			<text y="23" x="130">1</text>
		</g>
		<g transform="translate(10,70)">
			<line y1="30" x1="30" y2="60" x2="10" class="l-teal" />
			<line y1="30" x1="50" y2="60" x2="50" class="l-green" />
			<line y1="30" x1="90" y2="60" x2="90" class="l-blue" />
			<line y1="30" x1="110" y2="60" x2="130" class="l-yellow" />
			<line y1="30" x1="150" y2="60" x2="170" class="l-red" />
			<rect height="30" width="20" x="20"  class="teal" />
			<rect height="30" width="20" x="40" class="green" />
			<rect height="30" width="20" x="80" class="blue" />
			<rect height="30" width="20" x="100" class="yellow" />
			<rect height="30" width="20" x="140" class="red" />
			<text y="23" x="30">9</text>
			<text y="23" x="50">6</text>
			<text y="23" x="90">9</text>
			<text y="23" x="110">2</text>
			<text y="23" x="150">1</text>
		</g>
		<g transform="translate(10,130)">
			<line y1="30" x1="10" y2="120" x2="50" class="l-teal" />
			<line y1="30" x1="50" y2="120" x2="30" class="l-green" />
			<line y1="30" x1="90" y2="60" x2="110" class="l-blue" />
			<line y1="30" x1="130" y2="60" x2="90" class="l-yellow" />
			<line y1="30" x1="170" y2="60" x2="150" class="l-red" />
			<rect height="30" width="20" x="0"  class="teal" />
			<rect height="30" width="20" x="40" class="green" />
			<rect height="30" width="20" x="80" class="blue" />
			<rect height="30" width="20" x="120" class="yellow" />
			<rect height="30" width="20" x="160" class="red" />
			<text y="23" x="10">9</text>
			<text y="23" x="50">6</text>
			<text y="23" x="90">9</text>
			<text y="23" x="130">2</text>
			<text y="23" x="170">1</text>
		</g>
		<g transform="translate(10,190)">
			<line y1="30" x1="90" y2="60" x2="110" class="l-yellow" />
			<line y1="30" x1="110" y2="60" x2="130" class="l-blue" />
			<line y1="30" x1="150" y2="60" x2="90" class="l-red" />
			<rect height="30" width="20" x="80" class="yellow" />
			<rect height="30" width="20" x="100" class="blue" />
			<rect height="30" width="20" x="140" class="red" />
			<text y="23" x="90">2</text>
			<text y="23" x="110">9</text>
			<text y="23" x="150">1</text>
		</g>
		<g transform="translate(10,250)">
			<line y1="30" x1="30" y2="60" x2="90" class="l-green" />
			<line y1="30" x1="50" y2="60" x2="110" class="l-teal" />
			<line y1="30" x1="90" y2="60" x2="50" class="l-red" />
			<line y1="30" x1="110" y2="60" x2="70" class="l-yellow" />
			<line y1="30" x1="130" y2="60" x2="130" class="l-blue" />
			<rect height="30" width="20" x="20"  class="green" />
			<rect height="30" width="20" x="40" class="teal" />
			<rect height="30" width="20" x="80" class="red" />
			<rect height="30" width="20" x="100" class="yellow" />
			<rect height="30" width="20" x="120" class="blue" />
			<text y="23" x="30">6</text>
			<text y="23" x="50">9</text>
			<text y="23" x="90">1</text>
			<text y="23" x="110">2</text>
			<text y="23" x="130">9</text>
		</g>
		<g transform="translate(10,310)">
			<rect height="30" width="20" x="40"  class="red" />
			<rect height="30" width="20" x="60" class="yellow" />
			<rect height="30" width="20" x="80" class="green" />
			<rect height="30" width="20" x="100" class="teal" />
			<rect height="30" width="20" x="120" class="blue" />
			<text y="23" x="50">1</text>
			<text y="23" x="70">2</text>
			<text y="23" x="90">6</text>
			<text y="23" x="110">9</text>
			<text y="23" x="130">9</text>
		</g>
	</g>
</svg>
