<?xml version="1.0" standalone="yes"?>
<svg width="260" height="230" version="1.1" xmlns="http://www.w3.org/2000/svg">
	<style>
		.red { fill: hsl(0,100%,80%); }
		.yellow { fill: hsl(60,100%,80%); }
		.green { fill: hsl(120,100%,80%); }
		.teal { fill: hsl(180,100%,80%); }
		.blue { fill: hsl(240,100%,80%); }
		.purple { fill: hsl(300,100%,80%); }
		line, path, rect { stroke-width: 2; stroke: #000; }
		marker path, path path { stroke-width: 1; stroke-dasharray: 0; }
		text { font-family: Helvetica, Arial, sans-serif; font-size: 22px; fill: #000; }
		.dotted { stroke-dasharray: 6, 3; }
	</style>
	<marker id="arrow" viewBox="-1 0 12 10" refX="10.5" refY="5" markerWidth="8" markerHeight="8" orient="auto">
		<path d="M 0 0 L 10 5 L 0 10" stroke-width="1" stroke-dasharray="0" fill="transparent"/>
	</marker>
	<marker id="arrow-start" viewBox="-1 0 12 10" refX="10.5" refY="5" markerWidth="8" markerHeight="8" orient="90deg">
		<path d="M 0 0 L 10 5 L 0 10" stroke-width="1" stroke-dasharray="0" fill="transparent"/>
	</marker>
	<g>
		<g transform="translate(40,10)">
			<rect x="0" y="0" width="180" height="30" class="yellow" />
			<text x="90" y="21" text-anchor="middle" font-weight="bold">FacadeClient</text>
		</g>
		<g transform="translate(70,100)">
			<rect x="0" y="0" width="120" height="30" class="yellow" />
			<text x="60" y="21" text-anchor="middle" font-weight="bold">Facade</text>
		</g>
		<g transform="translate(10,190)">
			<rect x="0" y="0" width="110" height="30" class="yellow" />
			<text x="55" y="21" text-anchor="middle" font-weight="bold">Class1</text>
		</g>
		<g transform="translate(140,190)">
			<rect x="0" y="0" width="110" height="30" class="yellow" />
			<text x="55" y="21" text-anchor="middle" font-weight="bold">Class2</text>
		</g>
		<path d="m130,40l0,60" class="dotted" fill="transparent" marker-end="url(#arrow)" />
		<path d="m65,190l0,-30l130,0l0,30" class="dotted" fill="transparent" marker-start="url(#arrow-start)" marker-end="url(#arrow)" />
		<path d="m130,130l0,30" class="dotted" fill="transparent"/>
	</g>
</svg>
