<?xml version="1.0" standalone="yes"?>
<svg width="300" height="270" version="1.1" xmlns="http://www.w3.org/2000/svg">
	<style>
		path { stroke-width: 0; }
		.red { stroke-width: 5; fill: hsl(0,100%,80%); stroke: hsl(0,100%,40%); }
		.yellow { stroke-width: 5; fill: hsl(60,100%,80%); stroke: hsl(60,100%,40%); }
		.green { stroke-width: 5; fill: hsl(120,100%,80%); stroke: hsl(120,100%,40%); }
		.t-red { fill: hsl(0,75%,30%); }
		.t-yellow { fill: hsl(60,75%,30%); }
		.t-green { fill: hsl(120,75%,30%); }
		text { text-anchor: left; font-family: Helvetica, Arial, sans-serif; font-size: 30px; font-style: italic; font-weight: bold; alignment-baseline: middle; }
	</style>
	<rect class="green" x="10" y="10" width="50" height="50" rx="5"/>
	<rect class="yellow" x="10" y="75" width="50" height="50" rx="5"/>
	<rect class="green" x="10" y="140" width="50" height="50" rx="5"/>
	<rect class="red" x="10" y="205" width="50" height="50" rx="5"/>

	<text x="75" y="35" class="t-green">Accessibility</text>
	<text x="75" y="100" class="t-yellow">Design</text>
	<text x="75" y="165" class="t-green">Performance</text>
	<text x="75" y="230" class="t-red">SEO</text>

	<g transform="translate(10,10)">
		<path d="M0,28l15,22l35,-45l-35,33" class="t-green"/>
	</g>
	<g transform="translate(10,75)">
		<path d="M23,0l11,3l-10,35" class="t-yellow"/>
		<ellipse cx="23" cy="44" rx="4" ry="4" class="t-yellow"/>
	</g>
	<g transform="translate(10,140)">
		<path d="M0,28l15,22l35,-45l-35,33" class="t-green"/>
	</g>
	<g transform="translate(10,205)">
		<path d="M2,5l7,-5l40,50" class="t-red"/>
		<path d="M43,6l5,5l-45,40" class="t-red"/>
	</g>
</svg>
