<svg width="300" height="220" xmlns="http://www.w3.org/2000/svg"><style>ellipse, line, path { stroke: #000; stroke-width: 2; } .red { fill: hsl(0,100%,80%); } .yellow { fill: hsl(60,100%,80%); } .green { fill: hsl(120,100%,80%); } .teal { fill: hsl(180,100%,80%); } .blue { fill: hsl(240,100%,80%); } .purple { fill: hsl(300,100%,80%); } text { text-anchor: middle; font-family: Helvetica, Arial, sans-serif; font-size: 22px; fill: #000; } .small { font-size: 16px; }</style><marker id="arrow" viewBox="-1 0 12 10" refX="10.5" refY="5" markerWidth="5" markerHeight="5" orient="auto"><path d="M0 0l10 5-10 5z"/></marker><text x="120" y="-42" transform="translate(30 70)">Input</text><g transform="translate(30 70)"><path d="M14.142-14.142h51.716" marker-end="url(#arrow)"/><text y="-21" x="40" class="small">next</text><ellipse ry="20" rx="20" class="green"/><text y="7">1</text></g><g transform="translate(30 70) translate(80)"><path d="M14.142-14.142h51.716" marker-end="url(#arrow)"/><text y="-21" x="40" class="small">next</text><path d="M-14.142 14.142h-51.716" marker-end="url(#arrow)"/><text y="31" x="-40" class="small">prev</text><ellipse ry="20" rx="20" class="green"/><text y="7">2</text></g><g transform="translate(30 70) translate(160)"><path d="M14.142-14.142h51.716" marker-end="url(#arrow)"/><text y="-21" x="40" class="small">next</text><path d="M-14.142 14.142h-51.716" marker-end="url(#arrow)"/><text y="31" x="-40" class="small">prev</text><ellipse ry="20" rx="20" class="green"/><text y="7">3</text></g><g transform="translate(30 70) translate(240)"><path d="M-14.142 14.142h-51.716" marker-end="url(#arrow)"/><text y="31" x="-40" class="small">prev</text><ellipse ry="20" rx="20" class="green"/><text y="7">4</text></g><text x="120" y="-42" transform="translate(30 180)">Output</text><g transform="translate(30 180)"><path d="M14.142-14.142h51.716" marker-end="url(#arrow)"/><text y="-21" x="40" class="small">prev</text><ellipse ry="20" rx="20" class="red"/><text y="7">1</text></g><g transform="translate(30 180) translate(80)"><path d="M14.142-14.142h51.716" marker-end="url(#arrow)"/><text y="-21" x="40" class="small">prev</text><path d="M-14.142 14.142h-51.716" marker-end="url(#arrow)"/><text y="31" x="-40" class="small">next</text><ellipse ry="20" rx="20" class="red"/><text y="7">2</text></g><g transform="translate(30 180) translate(160)"><path d="M14.142-14.142h51.716" marker-end="url(#arrow)"/><text y="-21" x="40" class="small">prev</text><path d="M-14.142 14.142h-51.716" marker-end="url(#arrow)"/><text y="31" x="-40" class="small">next</text><ellipse ry="20" rx="20" class="red"/><text y="7">3</text></g><g transform="translate(30 180) translate(240)"><path d="M-14.142 14.142h-51.716" marker-end="url(#arrow)"/><text y="31" x="-40" class="small">next</text><ellipse ry="20" rx="20" class="red"/><text y="7">4</text></g></svg>