<svg width="300" height="190" xmlns="http://www.w3.org/2000/svg"><style>ellipse, line, path { stroke: #000; stroke-width: 2; } .red { fill: hsl(0,100%,80%); } .yellow { fill: hsl(60,100%,80%); } .green { fill: hsl(120,100%,80%); } .teal { fill: hsl(180,100%,80%); } .blue { fill: hsl(240,100%,80%); } .purple { fill: hsl(300,100%,80%); } text { text-anchor: middle; font-family: Helvetica, Arial, sans-serif; font-size: 22px; fill: #000; }</style><marker id="arrow" viewBox="-1 0 12 10" refX="10.5" refY="5" markerWidth="5" markerHeight="5" orient="auto"><path d="M0 0l10 5-10 5z"/></marker><text x="120" y="-32" transform="translate(30 60)">Input</text><g transform="translate(30 60)"><path d="M20 0h40" marker-end="url(#arrow)"/><ellipse ry="20" rx="20" class="green"/><text y="7">1</text></g><g transform="translate(30 60) translate(80)"><path d="M20 0h40" marker-end="url(#arrow)"/><ellipse ry="20" rx="20" class="green"/><text y="7">2</text></g><g transform="translate(30 60) translate(160)"><path d="M20 0h40" marker-end="url(#arrow)"/><ellipse ry="20" rx="20" class="green"/><text y="7">3</text></g><g transform="translate(30 60) translate(240)"><ellipse ry="20" rx="20" class="green"/><text y="7">4</text></g><text x="120" y="-32" transform="translate(30 160)">Output</text><g transform="translate(30 160)"><ellipse ry="20" rx="20" class="red"/><text y="7">1</text></g><g transform="translate(30 160) translate(80)"><path d="M-20 0h-40" marker-end="url(#arrow)"/><ellipse ry="20" rx="20" class="red"/><text y="7">2</text></g><g transform="translate(30 160) translate(160)"><path d="M-20 0h-40" marker-end="url(#arrow)"/><ellipse ry="20" rx="20" class="red"/><text y="7">3</text></g><g transform="translate(30 160) translate(240)"><path d="M-20 0h-40" marker-end="url(#arrow)"/><ellipse ry="20" rx="20" class="red"/><text y="7">4</text></g></svg>