<svg xmlns="http://www.w3.org/2000/svg" width="40" height="40"><svg xmlns="http://www.w3.org/2000/svg" viewBox="22 22 76 76" x="3" y="3" width="34" height="34"><path d="M97.147 48.319l-.026-.139-.056-.268-.05-.154-.082-.232-.071-.156-.108-.211-.091-.148-.135-.193-.109-.139-.159-.172-.127-.125-.181-.152-.145-.109-.053-.039-33.937-22.582c-1.072-.715-2.468-.715-3.54 0l-33.937 22.581-.053.039-.144.1-.181.152-.128.125-.158.2-.11.139-.134.193-.092.1-.108.211-.071.156-.082.2-.05.154-.056.268-.025.1c-.019.137-.029.275-.029.416v23.244c.017.1 0 .2.1.268.015.1 0 .1.1.154.025.1.1.2.1.2.021.1 0 .1.1.154l.1.213.1.1.1.193c.035 0 .1.1.1.139l.2.2c.042 0 .1.1.1.125.058.1.1.1.2.152l.1.1.1.039 33.858 22.725c.536.4 1.2.5 1.8.537.616 0 1.233-.18 1.77-.537l33.938-22.625.053-.039.145-.109.181-.152.127-.125.159-.172.109-.139.135-.193.091-.146.108-.213.071-.154.082-.234.05-.154.056-.268.026-.137c.018-.139.028-.277.028-.418v-22.627c-.03-.135-.006-.235-.106-.416zm-33.909-16.246l25.001 16.666-11.167 7.471-13.834-9.254v-14.883zm-6.382.027v14.883l-13.833 9.227-11.168-7.471 25.001-16.666zm-27.555 22.608l7.983 5.34-7.983 5.34v-10.68zm27.555 33.314l-25.001-16.622 11.168-7.469 13.833 9.252v14.839zm3.192-20.425l-11.286-7.549 11.286-7.549 11.285 7.549-11.285 7.549zm3.19 20.425v-14.882l13.834-9.252 11.167 7.469-25.001 16.665zm27.556-22.634l-7.982-5.34 7.982-5.34v10.68z" fill="#fff"/></svg></svg>