<svg xmlns="http://www.w3.org/2000/svg" width="40" height="40"><svg x="3" y="3" width="34" height="34" viewBox="0 0 512 512"><g fill="#FFF"><path d="M68.148 375.465c-37.598 0-68.147 30.667-68.147 68.038 0 37.577 30.55 67.901 68.147 67.901 37.733 0 68.247-30.324 68.247-67.901-.001-37.371-30.513-68.038-68.247-68.038z"/><path d="M.078 173.965v98.129c63.892 0 123.979 24.986 169.229 70.255 45.192 45.16 70.141 105.518 70.141 169.651h98.561c-.001-186.41-151.641-338.035-337.931-338.035z"/><path d="M.195 0v98.178c227.89 0 413.379 185.668 413.379 413.822h98.426c0-282.235-229.627-512-511.805-512z"/></g></svg></svg>