<svg xmlns="http://www.w3.org/2000/svg" viewBox="220 20 63 40" width="40" height="40"><g fill="#fff" fill-rule="evenodd"><path d="M236.896 65.605v-34.436h-11.446v34.436h11.446zm-5.723-39.138c3.991 0 6.476-2.644 6.476-5.949-.074-3.379-2.484-5.95-6.4-5.95-3.915 0-6.475 2.571-6.475 5.95 0 3.305 2.484 5.949 6.325 5.949h.074z"/><path d="M243.23 65.605h11.446v-19.231c0-1.029.074-2.057.377-2.793.827-2.056 2.711-4.186 5.873-4.186 4.142 0 5.799 3.158 5.799 7.787v18.423h11.445v-19.745c0-10.577-5.647-15.499-13.177-15.499-6.175 0-8.885 3.451-10.392 5.802h.076v-4.994h-11.446c.15 3.231 0 34.436 0 34.436z"/></g></svg>