<svg width="780" height="380" xmlns="http://www.w3.org/2000/svg"><style>rect { stroke: #000; stroke-width: 2; } path { stroke: #000; } rect.red { fill: hsl(0,100%,80%); } rect.yellow { fill: hsl(60,100%,80%); } rect.green { fill: hsl(120,100%,80%); } rect.teal { fill: hsl(180,100%,80%); } rect.blue { fill: hsl(240,100%,80%); } rect.purple { fill: hsl(300,100%,80%); } line { stroke-width: 2; stroke: #000; } line.red { stroke: hsl(0,75%,40%); } line.yellow { stroke: hsl(60,75%,40%); } line.green { stroke: hsl(120,75%,40%); } line.teal { stroke: hsl(180,75%,40%); } line.blue { stroke: hsl(240,75%,40%); } line.purple { stroke: hsl(300,75%,40%); } text { font-family: Helvetica, Arial, sans-serif; font-size: 22px; fill: #000; }</style><marker id="closed-triangle" viewBox="-1 0 12 10" refX="10.5" refY="5" markerWidth="8" markerHeight="8" orient="auto"><path d="M0 0l10 5-10 5z" fill="#fff"/></marker><marker id="diamond" viewBox="0 -1 10 12" refX="10" refY="5" markerWidth="14" markerHeight="7" orient="auto" preserveAspectRatio="none"><path d="M5 0l5 5-5 5-5-5 5-5z" fill="#fff"/></marker><marker id="arrow" viewBox="-1 0 12 10" refX="10.5" refY="5" markerWidth="8" markerHeight="8" orient="auto"><path d="M0 0l10 5-10 5" fill="transparent"/></marker><path class="yellow" d="M10 25h320v60h-320z"/><text x="160" y="21" text-anchor="middle" font-weight="bold" font-style="italic" transform="translate(10 25)">FlyweightFactory</text><path d="M10 53h320"/><text x="13" y="51" text-anchor="middle" transform="translate(10 25)">+</text><text x="30" y="51" transform="translate(10 25)">get(key : Object) : Flyweight</text><path class="yellow" d="M390 10h360v90h-360z"/><text x="180" y="21" text-anchor="middle" font-weight="bold" transform="translate(390 10)">«Interface»</text><text x="180" y="51" text-anchor="middle" font-weight="bold" transform="translate(390 10)">Flyweight</text><path d="M390 68h360"/><text x="13" y="81" text-anchor="middle" transform="translate(390 10)">+</text><text x="30" y="81" transform="translate(390 10)">operation(extrinsicData : Object)</text><path class="yellow" d="M120 190h100v30h-100z"/><text x="50" y="21" text-anchor="middle" font-weight="bold" transform="translate(120 190)">Client</text><path class="yellow" d="M390 160h360v90h-360z"/><text x="180" y="21" text-anchor="middle" font-weight="bold" transform="translate(390 160)">ConcreteFlyweight</text><path d="M390 188h360"/><text x="13" y="51" text-anchor="middle" transform="translate(390 160)">-</text><text x="30" y="51" transform="translate(390 160)">intrinsicState : Object</text><path d="M390 218h360"/><text x="13" y="81" text-anchor="middle" transform="translate(390 160)">+</text><text x="30" y="81" transform="translate(390 160)">operation(extrinsicData : Object)</text><path d="M170 190v-105" fill="transparent" marker-end="url(#arrow)"/><path d="M220 205h170" fill="transparent" marker-end="url(#arrow)"/><path d="M390 55h-60" fill="transparent" marker-end="url(#diamond)"/><path d="M570 160v-60" fill="transparent" marker-end="url(#closed-triangle)"/></svg>