<?xml version="1.0" standalone="yes"?>
<svg width="710" height="220" version="1.1" xmlns="http://www.w3.org/2000/svg">
    <style>
        rect { stroke: #000; stroke-width: 2; }
        rect.red,ellipse.red { fill: hsl(0,100%,80%); }
        rect.yellow,ellipse.yellow { fill: hsl(60,100%,80%); }
        rect.green,ellipse.green { fill: hsl(120,100%,80%); }
        rect.teal,ellipse.teal { fill: hsl(180,100%,80%); }
        rect.blue,ellipse.blue { fill: hsl(240,100%,80%); }
        rect.purple,ellipse.purple { fill: hsl(300,100%,80%); }
        .dot-red,.dot-green,.dot-blue { stroke-width:3; }
        .dot-red { stroke: hsl(0,100%,80%); fill: hsl(0,100%,95%); }
        .dot-green { stroke: hsl(120,100%,80%); fill: hsl(120,100%,95%); }
        .dot-blue { stroke: hsl(240,100%,80%); fill: hsl(240,100%,95%); }
        line { stroke-width: 2; stroke: #000; }
        text { text-anchor: middle; font-family: Helvetica, Arial, sans-serif; font-size: 22px; fill: #000; }
        ellipse { stroke-width: 2; stroke: #000; fill: #FFF }
        .black { fill: #000; }
        .white { fill: #fff; }
        path { stroke: #000; stroke-width: 2; }
        .order { font-size:18px; }
    </style>
    <g transform="translate(40,60)">
        <g>
            <text y="-37" x="0" class="order">Order 0</text>
            <rect class="dot-blue" x="-30" y="-30" width="60" height="60" />
            <ellipse ry="20" rx="20"/>
            <text y="7" x="0">13</text>
        </g>
        <g transform="translate(90,0)">
            <text y="-37" x="45" class="order">Order 1</text>
            <rect class="dot-green" x="-30" y="-30" width="150" height="180" />

            <path d="m0 0 l0,60"/>
            <ellipse ry="20" rx="20" cy="0" cx="0" />
            <text y="7" x="0">4</text>
            <g transform="translate(0,60)">
                <ellipse ry="20" rx="20" cy="0" cx="0" />
                <text y="7" x="0">10</text>
            </g>

            <g transform="translate(90 0)">
                <path d="m0 0 l0,60"/>
                <ellipse ry="20" rx="20" cy="0" cx="0" class="black" />
                <text y="7" x="0" class="white">2</text>
                <g transform="translate(0,60)">
                    <path d="m0 0 l0,60"/>
                    <ellipse ry="20" rx="20" cy="0" cx="0" />
                    <text y="7" x="0">7</text>
                    <g transform="translate(0 60)">
                        <ellipse ry="20" rx="20" cy="0" cx="0" />
                        <text y="7" x="0">11</text>
                    </g>
                </g>
            </g>
        </g>
        <g transform="translate(330,0)">
            <text y="-37" x="120" class="order">Order 2</text>
            <rect class="dot-red" x="-90" y="-30" width="420" height="180" />

            <path d="m0 0 l0,60"/>
            <path d="m0 0 l-60,60"/>
            <ellipse ry="20" rx="20" cy="0" cx="0" />
            <text y="7" x="0">1</text>
            <g transform="translate(0,60)">
                <ellipse ry="20" rx="20" cy="0" cx="0"/>
                <text y="7" x="0">9</text>
            </g>
            <g transform="translate(-60,60)">
                <ellipse ry="20" rx="20" cy="0" cx="0" class="black" />
                <text y="7" x="0" class="white">7</text>
            </g>

            <g transform="translate(150,0)">
                <path d="m0 0 l0,60"/>
                <path d="m0 0 l-60,60"/>
                <ellipse ry="20" rx="20" cy="0" cx="0" />
                <text y="7" x="0">3</text>
                <g transform="translate(0,60)">
                    <ellipse ry="20" rx="20" cy="0" cx="0" />
                    <text y="7" x="0">16</text>
                </g>
                <g transform="translate(-60,60)">
                    <path d="m0 0 l0,60"/>
                    <ellipse ry="20" rx="20" cy="0" cx="0" />
                    <text y="7" x="0">6</text>
                    <g transform="translate(0,60)">
                        <ellipse ry="20" rx="20" cy="0" cx="0" />
                        <text y="7" x="0">8</text>
                    </g>
                </g>
            </g>

            <g transform="translate(300,0)">
                <path d="m0 0 l0,60"/>
                <path d="m0 0 l-60,60"/>
                <ellipse ry="20" rx="20" cy="0" cx="0" class="black" />
                <text y="7" x="0" class="white">2</text>
                <g transform="translate(0,60)">
                    <path d="m0 0 l0,60"/>
                    <ellipse ry="20" rx="20" cy="0" cx="0" />
                    <text y="7" x="0">4</text>
                    <g transform="translate(0 60)">
                        <ellipse ry="20" rx="20" cy="0" cx="0" />
                        <text y="7" x="0">7</text>
                    </g>
                </g>
                <g transform="translate(-60,60)">
                    <path d="m0 0 l0,60"/>
                    <ellipse ry="20" rx="20" cy="0" cx="0" />
                    <text y="7" x="0">5</text>
                    <g transform="translate(0,60)">
                        <ellipse ry="20" rx="20" cy="0" cx="0" class="black" />
                        <text y="7" x="0" class="white">13</text>
                    </g>
                </g>
            </g>
        </g>
    </g>
</svg>
