<?xml version="1.0" standalone="yes"?>
<svg width="340" height="160" version="1.1" xmlns="http://www.w3.org/2000/svg">
	<style>
		rect { stroke: #000; stroke-width: 2; }
		rect.red,ellipse.red { fill: hsl(0,100%,80%); }
		rect.yellow,ellipse.yellow { fill: hsl(60,100%,80%); }
		rect.green,ellipse.green { fill: hsl(120,100%,80%); }
		rect.teal,ellipse.teal { fill: hsl(180,100%,80%); }
		rect.blue,ellipse.blue { fill: hsl(240,100%,80%); }
		rect.purple,ellipse.purple { fill: hsl(300,100%,80%); }
		line, path { stroke-width: 2; stroke: #000; }
		text { text-anchor: middle; font-family: Helvetica, Arial, sans-serif; font-size: 22px; fill: #000; }
		ellipse { stroke-width: 2; stroke: #000; fill: #FFF }
	</style>
	<g transform="translate(170,30)">
		<g>
			<path d="m0 0 l-90,50" fill="none" stroke-width="2"/>
			<path d="m0 0 l90,50" fill="none" stroke-width="2"/>
			<ellipse ry="20" rx="20" class="red" />
			<text y="7" x="0">1</text>
		</g>
		<g transform="translate(-90,50)">
			<path d="m0 0 l-50,50" fill="none" stroke-width="2"/>
			<path d="m0 0 l50,50" fill="none" stroke-width="2"/>
			<ellipse ry="20" rx="20" cy="0" cx="0" class="yellow" />
			<text y="7" x="0">2</text>
			<g transform="translate(-50,50)">
				<ellipse ry="20" rx="20" cy="0" cx="0" class="yellow" />
				<text y="7" x="0">3</text>
			</g>
			<g transform="translate(50,50)">
				<ellipse ry="20" rx="20" cy="0" cx="0" class="yellow" />
				<text y="7" x="0">9</text>
			</g>
		</g>
		<g transform="translate(90,50)">
			<path d="m0 0 l-50,50" fill="none" stroke-width="2"/>
			<path d="m0 0 l50,50" fill="none" stroke-width="2"/>
			<ellipse ry="20" rx="20" cy="0" cx="0" class="yellow" />
			<text y="7" x="0">4</text>
			<g transform="translate(-50,50)">
				<ellipse ry="20" rx="20" cy="0" cx="0" class="yellow" />
				<text y="7" x="0">8</text>
			</g>
			<g transform="translate(50,50)">
				<ellipse ry="20" rx="20" cy="0" cx="0" class="yellow" />
				<text y="7" x="0">6</text>
			</g>
		</g>
	</g>
</svg>
