<svg width="320" height="120" xmlns="http://www.w3.org/2000/svg"><svg width="455" height="290" y="-175" x="5" xmlns="http://www.w3.org/2000/svg"><style>rect, path, line { stroke: #000; stroke-width: 2; } .red { fill: hsl(0,100%,80%); } .yellow { fill: hsl(60,100%,80%); } .green { fill: hsl(120,100%,80%); } .teal { fill: hsl(180,100%,80%); } .blue { fill: hsl(240,100%,80%); } .purple { fill: hsl(300,100%,80%); } text { font-family: Helvetica, Arial, sans-serif; font-size: 22px; fill: #000; } .dotted { stroke-dasharray: 6, 3; } marker path, path path { stroke-width: 1; stroke-dasharray: 0; }</style><marker id="closed-triangle" viewBox="-1 0 12 10" refX="10.5" refY="5" markerWidth="8" markerHeight="8" orient="auto"><path d="M0 0l10 5-10 5z" fill="#fff"/></marker><marker id="arrow" viewBox="-1 0 12 10" refX="10.5" refY="5" markerWidth="8" markerHeight="8" orient="auto"><path d="M0 0l10 5-10 5" fill="transparent"/></marker><marker id="diamond" viewBox="0 -1 10 12" refX="10" refY="5" markerWidth="14" markerHeight="7" orient="auto" preserveAspectRatio="none"><path d="M5 0l5 5-5 5-5-5 5-5z"/></marker><path class="yellow" d="M95 10h120v30h-120z"/><text x="60" y="21" text-anchor="middle" font-weight="bold" font-style="italic" transform="translate(95 10)">Person</text><path class="yellow" d="M75 100h160v60h-160z"/><text x="80" y="21" text-anchor="middle" font-weight="bold" transform="translate(75 100)">Programmer</text><path d="M75 128h160"/><text x="13" y="51" text-anchor="middle" transform="translate(75 100)">-</text><text x="30" y="51" transform="translate(75 100)">code()</text><path class="yellow" d="M10 220h290v60h-290z"/><text x="145" y="21" text-anchor="middle" font-weight="bold" transform="translate(10 220)">Design Pattern</text><path d="M10 248h290"/><text x="13" y="51" text-anchor="middle" transform="translate(10 220)">+</text><text x="30" y="51" transform="translate(10 220)">apply(Problem) : Solution</text><path class="yellow" d="M295 115h150v30h-150z"/><text x="75" y="21" text-anchor="middle" font-weight="bold" transform="translate(295 115)">Computer</text><path d="M155 100v-60" fill="transparent" marker-end="url(#closed-triangle)"/><path d="M155 160v60" class="dotted" fill="transparent" marker-end="url(#arrow)"/><path d="M295 130h-60" class="dotted" fill="transparent" marker-end="url(#diamond)"/></svg></svg>