<svg width="420" height="100" xmlns="http://www.w3.org/2000/svg"><style>rect, path, line { stroke: #000; stroke-width: 2; } .red { fill: hsl(0,100%,80%); } .yellow { fill: hsl(60,100%,80%); } .green { fill: hsl(120,100%,80%); } .teal { fill: hsl(180,100%,80%); } .blue { fill: hsl(240,100%,80%); } .purple { fill: hsl(300,100%,80%); } text { text-anchor: middle; font-family: Helvetica, Arial, sans-serif; font-size: 22px; fill: #000; } ellipse { stroke-width: 2; stroke: #000; fill: #FFF }</style><marker id="arrow-r" viewBox="0 0 10 10" refX="5" refY="5" orient="auto"><path d="M0 0l10 5-10 5"/></marker><marker id="arrow-rd" viewBox="0 0 10 10" refX="9" refY="4" orient="30"><path d="M0 0l10 5-10 5"/></marker><marker id="arrow-ru" viewBox="0 0 10 10" refX="9" refY="6" orient="-30"><path d="M0 0l10 5-10 5"/></marker><g transform="translate(30 50)"><ellipse ry="20" rx="20" class="red"/><path d="M20 0h20"/><path d="M14.142-14.142c46.868-30 91.716 0 91.716 0" fill="none"/><text y="7">[0]</text></g><g transform="translate(30 50) translate(60)"><ellipse ry="20" rx="20" class="yellow"/><path d="M14.142 14.142c46.868 30 91.716 0 91.716 0" fill="none"/><path d="M14.142 14.142c76.868 50 151.716 0 151.716 0" fill="none"/><text y="7">[1]</text></g><g transform="translate(30 50) translate(120)"><ellipse ry="20" rx="20" class="green"/><path d="M14.142-14.142c76.868-30 151.716 0 151.716 0" fill="none"/><path d="M14.142-14.142c106.868-50 211.716 0 211.716 0" fill="none"/><text y="7">[2]</text></g><g transform="translate(30 50) translate(180)"><ellipse ry="20" rx="20" class="teal"/><text y="7">[3]</text></g><g transform="translate(30 50) translate(240)"><ellipse ry="20" rx="20" class="blue"/><text y="7">[4]</text></g><g transform="translate(30 50) translate(300)"><ellipse ry="20" rx="20" class="purple"/><text y="7">[5]</text></g><g transform="translate(30 50) translate(360)"><ellipse ry="20" rx="20" class="red"/><text y="7">[6]</text></g></svg>