<?xml version="1.0" standalone="yes"?>
<svg width="300" height="180" version="1.1" xmlns="http://www.w3.org/2000/svg" xmlns:xlink="http://www.w3.org/1999/xlink" class="playing" id="player">
	<style>
		ellipse.red { fill: hsl(0,100%,80%); }
		ellipse.yellow { fill: hsl(60,100%,80%); }
		ellipse.green { fill: hsl(120,100%,80%); }
		ellipse.teal { fill: hsl(180,100%,80%); }
		ellipse.blue { fill: hsl(240,100%,80%); }
		ellipse.purple { fill: hsl(300,100%,80%); }
		line { stroke-width: 2; stroke: #000; }
		text { text-anchor: middle; font-family: Helvetica, Arial, sans-serif; font-size: 22px; fill: #000; }
		ellipse { stroke-width: 2; stroke: #000; fill: #FFF }
		path { stroke: #000; stroke-width: 2; }
		.step { font-size:18px; }
	</style>

	<g transform="translate(30,30)">
		<path d="m0 0 l150,0"/>
		<ellipse ry="20" rx="20"/>
		<text y="7" x="0">9</text>
		<g transform="translate(150,0)">
			<g id="t3">
				<path d="m0 0 l0,60"/>
				<path d="m0 0 l-60,60"/>
				<ellipse ry="20" rx="20" cy="0" cx="0" />
				<text y="7" x="0">3</text>
				<g transform="translate(0,60)">
					<ellipse ry="20" rx="20" cy="0" cx="0" />
					<text y="7" x="0">4</text>
				</g>
				<g transform="translate(-60,60)">
					<path d="m0 0 l0,60" fill="none"/>
					<ellipse ry="20" rx="20" cy="0" cx="0" />
					<text y="7" x="0">5</text>
					<g transform="translate(0,60)">
						<ellipse ry="20" rx="20" cy="0" cx="0" />
						<text y="7" x="0">12</text>
					</g>
				</g>
			</g>
		</g>
	</g>

	<g transform="translate(270,30)">
		<ellipse ry="20" rx="20" cy="0" cx="0" class="green" />
		<text y="7" x="0">1</text>
	</g>
</svg>
