<?xml version="1.0" standalone="yes"?>
<svg width="330" height="330" version="1.1" xmlns="http://www.w3.org/2000/svg" xmlns:xlink="http://www.w3.org/1999/xlink" class="playing" id="player">
	<style>
		ellipse.red { fill: hsl(0,100%,80%); }
		ellipse.yellow { fill: hsl(60,100%,80%); }
		ellipse.green { fill: hsl(120,100%,80%); }
		ellipse.teal { fill: hsl(180,100%,80%); }
		ellipse.blue { fill: hsl(240,100%,80%); }
		ellipse.purple { fill: hsl(300,100%,80%); }
		line, path { stroke-width: 2; stroke: #000; }
		text { text-anchor: middle; font-family: Helvetica, Arial, sans-serif; font-size: 22px; fill: #000; }
		ellipse { stroke-width: 2; stroke: #000; fill: #FFF }
		.step { font-size:18px; }
		#arrow path { stroke-width: 1; }
	</style>
	<marker id="arrow" viewBox="-1 0 12 10" refX="10.5" refY="5" markerWidth="8" markerHeight="8" orient="auto">
		<path d="M 0 0 L 10 5 L 0 10" fill="transparent"/>
	</marker>
	<marker id="arrow-start" viewBox="-1 0 12 10" refX="10.5" refY="5" markerWidth="8" markerHeight="8" orient="90">
		<path d="M 0 0 L 10 5 L 0 10" fill="transparent"/>
	</marker>
	<g transform="translate(30,30)">
		<g transform="translate(270,0)">
			<path d="m0 70 l0,-50" marker-end="url(#arrow)"/>
			<path d="m-17.320508 10 l-145.358984,70" marker-end="url(#arrow)"/>
			<ellipse ry="20" rx="20" cy="0" cx="0" />
			<text y="7" x="0">3</text>
			<g transform="translate(0,90)">
				<ellipse ry="20" rx="20" cy="0" cx="0" />
				<text y="7" x="0">4</text>
			</g>
			<g transform="translate(-90,90)">
				<path d="m14.142135 -14.142135 l61.71572,-61.71572" marker-end="url(#arrow)"/>
				<path d="m0 20 l0,50" marker-end="url(#arrow)"/>
				<path d="m20 0 l50,0" marker-end="url(#arrow)"/>
				<path d="m0 70 l0,-50" marker-end="url(#arrow)"/>
				<ellipse ry="20" rx="20" cy="0" cx="0" />
				<text y="7" x="0">5</text>
				<g transform="translate(0,90)">
					<ellipse ry="20" rx="20" cy="0" cx="0" />
					<text y="7" x="0">12</text>
				</g>
			</g>
			<g transform="translate(-180,90)">
				<path d="m0 70 l0,-50" marker-end="url(#arrow)"/>
				<path d="m-14.142135 14.142135 l-61.71572,61.71572" marker-end="url(#arrow)"/>
				<path d="m17.320508 -10 l145.358984,-70" marker-end="url(#arrow)"/>
				<path d="m20 0 l50,0" marker-end="url(#arrow)"/>
				<ellipse ry="20" rx="20" cy="0" cx="0" />
				<text y="7" x="0">3</text>
				<g transform="translate(0,90)">
					<ellipse ry="20" rx="20" cy="0" cx="0" />
					<text y="7" x="0">4</text>
				</g>
				<g transform="translate(-90,90)">
					<path d="m14.142135 -14.142135 l61.71572,-61.71572" marker-end="url(#arrow)"/>
					<path d="m0 20 l0,50" marker-end="url(#arrow)"/>
					<path d="m20 0 l50,0" marker-end="url(#arrow)"/>
					<path d="m0 70 l0,-50" marker-end="url(#arrow)"/>
					<ellipse ry="20" rx="20" cy="0" cx="0" />
					<text y="7" x="0">5</text>
					<g transform="translate(0,90)">
						<ellipse ry="20" rx="20" cy="0" cx="0" />
						<text y="7" x="0">12</text>
					</g>
				</g>
			</g>
		</g>
	</g>
</svg>
