<?xml version="1.0" standalone="yes"?>
<svg width="220" height="220" version="1.1" xmlns="http://www.w3.org/2000/svg">
  <!-- Drawn from bottom to top -->
  <path fill="#818185" d="m24,129l15,0l0,76l113,0l0,-76l15,0l0,90l-143,0z"/>
  <path fill="#818185" d="m52,172l85,0l0,17l-85,0z"/>
  <path fill="#A68A6E" d="m54,140l85,8l-2,18l-84,-8z"/>
  <path fill="#C09452" d="m62,102l83,22l-5,17l-82,-22z"/>
  <path fill="#D28A29" d="m82,59l74,44l-9,15l-74-44z"/>
  <path fill="#F68A1F" d="m126,18l48,71l-15,10l-48,-70z"/>
  <path fill="#F68A1F" d="m181,0l14,84l-17,3l-15,-84z"/>
</svg>
