<svg width="180" height="470" xmlns="http://www.w3.org/2000/svg"><style>rect, line, path { stroke: #000; stroke-width: 2; } .red { fill: hsl(0,100%,80%); } .yellow { fill: hsl(60,100%,80%); } .green { fill: hsl(120,100%,80%); } .teal { fill: hsl(180,100%,80%); } .blue { fill: hsl(240,100%,80%); } .purple { fill: hsl(300,100%,80%); } .l-red { stroke: hsl(0,75%,40%); } .l-yellow { stroke: hsl(60,75%,40%); } .l-green { stroke: hsl(120,75%,40%); } .l-teal { stroke: hsl(180,75%,40%); } .l-blue { stroke: hsl(240,75%,40%); } .l-purple { stroke: hsl(300,75%,40%); } text { text-anchor: middle; font-family: Helvetica, Arial, sans-serif; font-size: 22px; fill: #000; } text.small { font-size: 16px; font-weight:bold; }</style><path class="red" d="M10 20h20v30h-20z"/><path class="red" d="M30 20h20v30h-20z"/><path class="yellow" d="M50 20h20v30h-20z"/><path class="green" d="M70 20h20v30h-20z"/><path class="yellow" d="M90 20h20v30h-20z"/><path class="purple" d="M110 20h20v30h-20z"/><path class="teal" d="M130 20h20v30h-20z"/><path class="blue" d="M150 20h20v30h-20z"/><text y="23" x="10" transform="translate(10 20)">2</text><text y="23" x="30" transform="translate(10 20)">7</text><text y="23" x="50" transform="translate(10 20)">3</text><text y="23" x="70" transform="translate(10 20)">1</text><text y="23" x="90" transform="translate(10 20)">5</text><text y="23" x="110" transform="translate(10 20)">8</text><text y="23" x="130" transform="translate(10 20)">4</text><text y="23" x="150" transform="translate(10 20)">5</text><text y="-3" x="10" class="small" transform="translate(10 20)">i,m</text><text y="-3" x="150" class="small" transform="translate(10 20)">p</text><path class="l-red" d="M40 100l20 30"/><path class="l-yellow" d="M60 100l-20 30"/><path class="red" d="M10 70h20v30h-20z"/><path class="red" d="M30 70h20v30h-20z"/><path class="yellow" d="M50 70h20v30h-20z"/><path class="green" d="M70 70h20v30h-20z"/><path class="yellow" d="M90 70h20v30h-20z"/><path class="purple" d="M110 70h20v30h-20z"/><path class="teal" d="M130 70h20v30h-20z"/><path class="blue" d="M150 70h20v30h-20z"/><text y="23" x="10" transform="translate(10 70)">2</text><text y="23" x="30" transform="translate(10 70)">7</text><text y="23" x="50" transform="translate(10 70)">3</text><text y="23" x="70" transform="translate(10 70)">1</text><text y="23" x="90" transform="translate(10 70)">5</text><text y="23" x="110" transform="translate(10 70)">8</text><text y="23" x="130" transform="translate(10 70)">4</text><text y="23" x="150" transform="translate(10 70)">5</text><text y="-3" x="30" class="small" transform="translate(10 70)">i,m</text><text y="-3" x="150" class="small" transform="translate(10 70)">p</text><path class="l-red" d="M60 160l20 30"/><path class="l-green" d="M80 160l-20 30"/><path class="red" d="M10 130h20v30h-20z"/><path class="yellow" d="M30 130h20v30h-20z"/><path class="red" d="M50 130h20v30h-20z"/><path class="green" d="M70 130h20v30h-20z"/><path class="yellow" d="M90 130h20v30h-20z"/><path class="purple" d="M110 130h20v30h-20z"/><path class="teal" d="M130 130h20v30h-20z"/><path class="blue" d="M150 130h20v30h-20z"/><text y="23" x="10" transform="translate(10 130)">2</text><text y="23" x="30" transform="translate(10 130)">3</text><text y="23" x="50" transform="translate(10 130)">7</text><text y="23" x="70" transform="translate(10 130)">1</text><text y="23" x="90" transform="translate(10 130)">5</text><text y="23" x="110" transform="translate(10 130)">8</text><text y="23" x="130" transform="translate(10 130)">4</text><text y="23" x="150" transform="translate(10 130)">5</text><text y="-3" x="30" class="small" transform="translate(10 130)">m</text><text y="-3" x="50" class="small" transform="translate(10 130)">i</text><text y="-3" x="150" class="small" transform="translate(10 130)">p</text><path class="red" d="M10 190h20v30h-20z"/><path class="yellow" d="M30 190h20v30h-20z"/><path class="green" d="M50 190h20v30h-20z"/><path class="red" d="M70 190h20v30h-20z"/><path class="yellow" d="M90 190h20v30h-20z"/><path class="purple" d="M110 190h20v30h-20z"/><path class="teal" d="M130 190h20v30h-20z"/><path class="blue" d="M150 190h20v30h-20z"/><text y="23" x="10" transform="translate(10 190)">2</text><text y="23" x="30" transform="translate(10 190)">3</text><text y="23" x="50" transform="translate(10 190)">1</text><text y="23" x="70" transform="translate(10 190)">7</text><text y="23" x="90" transform="translate(10 190)">5</text><text y="23" x="110" transform="translate(10 190)">8</text><text y="23" x="130" transform="translate(10 190)">4</text><text y="23" x="150" transform="translate(10 190)">5</text><text y="-3" x="50" class="small" transform="translate(10 190)">m</text><text y="-3" x="70" class="small" transform="translate(10 190)">i</text><text y="-3" x="150" class="small" transform="translate(10 190)">p</text><path class="red" d="M10 250h20v30h-20z"/><path class="yellow" d="M30 250h20v30h-20z"/><path class="green" d="M50 250h20v30h-20z"/><path class="red" d="M70 250h20v30h-20z"/><path class="yellow" d="M90 250h20v30h-20z"/><path class="purple" d="M110 250h20v30h-20z"/><path class="teal" d="M130 250h20v30h-20z"/><path class="blue" d="M150 250h20v30h-20z"/><text y="23" x="10" transform="translate(10 250)">2</text><text y="23" x="30" transform="translate(10 250)">3</text><text y="23" x="50" transform="translate(10 250)">1</text><text y="23" x="70" transform="translate(10 250)">7</text><text y="23" x="90" transform="translate(10 250)">5</text><text y="23" x="110" transform="translate(10 250)">8</text><text y="23" x="130" transform="translate(10 250)">4</text><text y="23" x="150" transform="translate(10 250)">5</text><text y="-3" x="50" class="small" transform="translate(10 250)">m</text><text y="-3" x="90" class="small" transform="translate(10 250)">i</text><text y="-3" x="150" class="small" transform="translate(10 250)">p</text><path class="l-red" d="M80 340l60 30"/><path class="l-teal" d="M140 340l-60 30"/><path class="red" d="M10 310h20v30h-20z"/><path class="yellow" d="M30 310h20v30h-20z"/><path class="green" d="M50 310h20v30h-20z"/><path class="red" d="M70 310h20v30h-20z"/><path class="yellow" d="M90 310h20v30h-20z"/><path class="purple" d="M110 310h20v30h-20z"/><path class="teal" d="M130 310h20v30h-20z"/><path class="blue" d="M150 310h20v30h-20z"/><text y="23" x="10" transform="translate(10 310)">2</text><text y="23" x="30" transform="translate(10 310)">3</text><text y="23" x="50" transform="translate(10 310)">1</text><text y="23" x="70" transform="translate(10 310)">7</text><text y="23" x="90" transform="translate(10 310)">5</text><text y="23" x="110" transform="translate(10 310)">8</text><text y="23" x="130" transform="translate(10 310)">4</text><text y="23" x="150" transform="translate(10 310)">5</text><text y="-3" x="50" class="small" transform="translate(10 310)">m</text><text y="-3" x="110" class="small" transform="translate(10 310)">i</text><text y="-3" x="150" class="small" transform="translate(10 310)">p</text><path class="l-yellow" d="M100 400l60 30"/><path class="l-blue" d="M160 400l-60 30"/><path class="red" d="M10 370h20v30h-20z"/><path class="yellow" d="M30 370h20v30h-20z"/><path class="green" d="M50 370h20v30h-20z"/><path class="teal" d="M70 370h20v30h-20z"/><path class="yellow" d="M90 370h20v30h-20z"/><path class="purple" d="M110 370h20v30h-20z"/><path class="red" d="M130 370h20v30h-20z"/><path class="blue" d="M150 370h20v30h-20z"/><text y="23" x="10" transform="translate(10 370)">2</text><text y="23" x="30" transform="translate(10 370)">3</text><text y="23" x="50" transform="translate(10 370)">1</text><text y="23" x="70" transform="translate(10 370)">4</text><text y="23" x="90" transform="translate(10 370)">6</text><text y="23" x="110" transform="translate(10 370)">8</text><text y="23" x="130" transform="translate(10 370)">7</text><text y="23" x="150" transform="translate(10 370)">5</text><text y="-3" x="70" class="small" transform="translate(10 370)">m</text><text y="-3" x="130" class="small" transform="translate(10 370)">i</text><text y="-3" x="150" class="small" transform="translate(10 370)">p</text><path class="red" d="M10 430h20v30h-20z"/><path class="yellow" d="M30 430h20v30h-20z"/><path class="green" d="M50 430h20v30h-20z"/><path class="teal" d="M70 430h20v30h-20z"/><path class="blue" d="M90 430h20v30h-20z"/><path class="purple" d="M110 430h20v30h-20z"/><path class="red" d="M130 430h20v30h-20z"/><path class="yellow" d="M150 430h20v30h-20z"/><text y="23" x="10" transform="translate(10 430)">2</text><text y="23" x="30" transform="translate(10 430)">3</text><text y="23" x="50" transform="translate(10 430)">1</text><text y="23" x="70" transform="translate(10 430)">4</text><text y="23" x="90" transform="translate(10 430)">5</text><text y="23" x="110" transform="translate(10 430)">8</text><text y="23" x="130" transform="translate(10 430)">7</text><text y="23" x="150" transform="translate(10 430)">6</text><text y="-3" x="90" class="small" transform="translate(10 430)">p</text></svg>