<svg width="300" height="290" xmlns="http://www.w3.org/2000/svg"><style>rect, line, path { stroke: #000; stroke-width: 2; } .red { fill: hsl(0,100%,80%); } .yellow { fill: hsl(60,100%,80%); } .green { fill: hsl(120,100%,80%); } .teal { fill: hsl(180,100%,80%); } .blue { fill: hsl(240,100%,80%); } .purple { fill: hsl(300,100%,80%); } .l-red { stroke: hsl(0,75%,40%); } .l-yellow { stroke: hsl(60,75%,40%); } .l-green { stroke: hsl(120,75%,40%); } .l-teal { stroke: hsl(180,75%,40%); } .l-blue { stroke: hsl(240,75%,40%); } .l-purple { stroke: hsl(300,75%,40%); } text { text-anchor: middle; font-family: Helvetica, Arial, sans-serif; font-size: 22px; fill: #000; }</style><path class="l-blue" d="M110 40l80 30"/><path class="l-green" d="M130 40v30"/><path class="l-yellow" d="M150 40v30"/><path class="l-teal" d="M170 40v30"/><path class="l-red" d="M190 40l-80 30"/><path class="blue" d="M100 10h20v30h-20z"/><path class="green" d="M120 10h20v30h-20z"/><path class="yellow" d="M140 10h20v30h-20z"/><path class="teal" d="M160 10h20v30h-20z"/><path class="red" d="M180 10h20v30h-20z"/><text y="23" x="10" transform="translate(90) translate(10 10)">9</text><text y="23" x="30" transform="translate(90) translate(10 10)">6</text><text y="23" x="50" transform="translate(90) translate(10 10)">2</text><text y="23" x="70" transform="translate(90) translate(10 10)">9</text><text y="23" x="90" transform="translate(90) translate(10 10)">1</text><path class="l-red" d="M110 100v30"/><path class="l-green" d="M130 100v30"/><path class="l-yellow" d="M150 100v30"/><path class="l-teal" d="M170 100v30"/><path class="l-blue" d="M190 100v30"/><path class="red" d="M100 70h20v30h-20z"/><path class="green" d="M120 70h20v30h-20z"/><path class="yellow" d="M140 70h20v30h-20z"/><path class="teal" d="M160 70h20v30h-20z"/><path class="blue" d="M180 70h20v30h-20z"/><text y="23" x="10" transform="translate(90) translate(10 70)">1</text><text y="23" x="30" transform="translate(90) translate(10 70)">6</text><text y="23" x="50" transform="translate(90) translate(10 70)">2</text><text y="23" x="70" transform="translate(90) translate(10 70)">9</text><text y="23" x="90" transform="translate(90) translate(10 70)">9</text><path class="l-red" d="M110 160v30"/><path class="l-green" d="M130 160v30"/><path class="l-yellow" d="M150 160v30"/><path class="l-teal" d="M170 160v30"/><path class="l-blue" d="M190 160v30"/><path class="red" d="M100 130h20v30h-20z"/><path class="green" d="M120 130h20v30h-20z"/><path class="yellow" d="M140 130h20v30h-20z"/><path class="teal" d="M160 130h20v30h-20z"/><path class="blue" d="M180 130h20v30h-20z"/><text y="23" x="10" transform="translate(90) translate(10 130)">1</text><text y="23" x="30" transform="translate(90) translate(10 130)">6</text><text y="23" x="50" transform="translate(90) translate(10 130)">2</text><text y="23" x="70" transform="translate(90) translate(10 130)">9</text><text y="23" x="90" transform="translate(90) translate(10 130)">9</text><path class="l-red" d="M110 220v30"/><path class="l-green" d="M130 220l20 30"/><path class="l-yellow" d="M150 220l-20 30"/><path class="l-teal" d="M170 220v30"/><path class="l-blue" d="M190 220v30"/><path class="red" d="M100 190h20v30h-20z"/><path class="green" d="M120 190h20v30h-20z"/><path class="yellow" d="M140 190h20v30h-20z"/><path class="teal" d="M160 190h20v30h-20z"/><path class="blue" d="M180 190h20v30h-20z"/><text y="23" x="10" transform="translate(90) translate(10 190)">1</text><text y="23" x="30" transform="translate(90) translate(10 190)">6</text><text y="23" x="50" transform="translate(90) translate(10 190)">2</text><text y="23" x="70" transform="translate(90) translate(10 190)">9</text><text y="23" x="90" transform="translate(90) translate(10 190)">9</text><path class="red" d="M100 250h20v30h-20z"/><path class="yellow" d="M120 250h20v30h-20z"/><path class="green" d="M140 250h20v30h-20z"/><path class="teal" d="M160 250h20v30h-20z"/><path class="blue" d="M180 250h20v30h-20z"/><text y="23" x="10" transform="translate(90) translate(10 250)">1</text><text y="23" x="30" transform="translate(90) translate(10 250)">2</text><text y="23" x="50" transform="translate(90) translate(10 250)">6</text><text y="23" x="70" transform="translate(90) translate(10 250)">9</text><text y="23" x="90" transform="translate(90) translate(10 250)">9</text></svg>