<svg width="120" height="290" xmlns="http://www.w3.org/2000/svg"><style>rect, line, path { stroke: #000; stroke-width: 2; } .red { fill: hsl(0,100%,80%); } .yellow { fill: hsl(60,100%,80%); } .green { fill: hsl(120,100%,80%); } .teal { fill: hsl(180,100%,80%); } .blue { fill: hsl(240,100%,80%); } .purple { fill: hsl(300,100%,80%); } .l-red { stroke: hsl(0,75%,40%); } .l-yellow { stroke: hsl(60,75%,40%); } .l-green { stroke: hsl(120,75%,40%); } .l-teal { stroke: hsl(180,75%,40%); } .l-blue { stroke: hsl(240,75%,40%); } .l-purple { stroke: hsl(300,75%,40%); } text { text-anchor: middle; font-family: Helvetica, Arial, sans-serif; font-size: 22px; fill: #000; }</style><path class="l-blue" d="M20 40l80 30"/><path class="l-green" d="M40 40v30"/><path class="l-yellow" d="M60 40v30"/><path class="l-teal" d="M80 40v30"/><path class="l-red" d="M100 40l-80 30"/><path class="blue" d="M10 10h20v30h-20z"/><path class="green" d="M30 10h20v30h-20z"/><path class="yellow" d="M50 10h20v30h-20z"/><path class="teal" d="M70 10h20v30h-20z"/><path class="red" d="M90 10h20v30h-20z"/><text y="23" x="10" transform="translate(10 10)">9</text><text y="23" x="30" transform="translate(10 10)">6</text><text y="23" x="50" transform="translate(10 10)">2</text><text y="23" x="70" transform="translate(10 10)">9</text><text y="23" x="90" transform="translate(10 10)">1</text><path class="l-red" d="M20 100v30"/><path class="l-green" d="M40 100v30"/><path class="l-yellow" d="M60 100v30"/><path class="l-teal" d="M80 100v30"/><path class="l-blue" d="M100 100v30"/><path class="red" d="M10 70h20v30h-20z"/><path class="green" d="M30 70h20v30h-20z"/><path class="yellow" d="M50 70h20v30h-20z"/><path class="teal" d="M70 70h20v30h-20z"/><path class="blue" d="M90 70h20v30h-20z"/><text y="23" x="10" transform="translate(10 70)">1</text><text y="23" x="30" transform="translate(10 70)">6</text><text y="23" x="50" transform="translate(10 70)">2</text><text y="23" x="70" transform="translate(10 70)">9</text><text y="23" x="90" transform="translate(10 70)">9</text><path class="l-red" d="M20 160v30"/><path class="l-green" d="M40 160v30"/><path class="l-yellow" d="M60 160v30"/><path class="l-teal" d="M80 160v30"/><path class="l-blue" d="M100 160v30"/><path class="red" d="M10 130h20v30h-20z"/><path class="green" d="M30 130h20v30h-20z"/><path class="yellow" d="M50 130h20v30h-20z"/><path class="teal" d="M70 130h20v30h-20z"/><path class="blue" d="M90 130h20v30h-20z"/><text y="23" x="10" transform="translate(10 130)">1</text><text y="23" x="30" transform="translate(10 130)">6</text><text y="23" x="50" transform="translate(10 130)">2</text><text y="23" x="70" transform="translate(10 130)">9</text><text y="23" x="90" transform="translate(10 130)">9</text><path class="l-red" d="M20 220v30"/><path class="l-green" d="M40 220l20 30"/><path class="l-yellow" d="M60 220l-20 30"/><path class="l-teal" d="M80 220v30"/><path class="l-blue" d="M100 220v30"/><path class="red" d="M10 190h20v30h-20z"/><path class="green" d="M30 190h20v30h-20z"/><path class="yellow" d="M50 190h20v30h-20z"/><path class="teal" d="M70 190h20v30h-20z"/><path class="blue" d="M90 190h20v30h-20z"/><text y="23" x="10" transform="translate(10 190)">1</text><text y="23" x="30" transform="translate(10 190)">6</text><text y="23" x="50" transform="translate(10 190)">2</text><text y="23" x="70" transform="translate(10 190)">9</text><text y="23" x="90" transform="translate(10 190)">9</text><path class="red" d="M10 250h20v30h-20z"/><path class="yellow" d="M30 250h20v30h-20z"/><path class="green" d="M50 250h20v30h-20z"/><path class="teal" d="M70 250h20v30h-20z"/><path class="blue" d="M90 250h20v30h-20z"/><text y="23" x="10" transform="translate(10 250)">1</text><text y="23" x="30" transform="translate(10 250)">2</text><text y="23" x="50" transform="translate(10 250)">6</text><text y="23" x="70" transform="translate(10 250)">9</text><text y="23" x="90" transform="translate(10 250)">9</text></svg>