<svg width="260" height="230" xmlns="http://www.w3.org/2000/svg"><style>.red { fill: hsl(0,100%,80%); } .yellow { fill: hsl(60,100%,80%); } .green { fill: hsl(120,100%,80%); } .teal { fill: hsl(180,100%,80%); } .blue { fill: hsl(240,100%,80%); } .purple { fill: hsl(300,100%,80%); } line, path, rect { stroke-width: 2; stroke: #000; } marker path, path path { stroke-width: 1; stroke-dasharray: 0; } text { font-family: Helvetica, Arial, sans-serif; font-size: 22px; fill: #000; } .dotted { stroke-dasharray: 6, 3; }</style><marker id="arrow" viewBox="-1 0 12 10" refX="10.5" refY="5" markerWidth="8" markerHeight="8" orient="auto"><path d="M0 0l10 5-10 5" fill="transparent"/></marker><marker id="arrow-start" viewBox="-1 0 12 10" refX="10.5" refY="5" markerWidth="8" markerHeight="8" orient="90deg"><path d="M0 0l10 5-10 5" fill="transparent"/></marker><path class="yellow" d="M40 10h180v30h-180z"/><text x="90" y="21" text-anchor="middle" font-weight="bold" transform="translate(40 10)">FacadeClient</text><path class="yellow" d="M70 100h120v30h-120z"/><text x="60" y="21" text-anchor="middle" font-weight="bold" transform="translate(70 100)">Facade</text><path class="yellow" d="M10 190h110v30h-110z"/><text x="55" y="21" text-anchor="middle" font-weight="bold" transform="translate(10 190)">Class1</text><path class="yellow" d="M140 190h110v30h-110z"/><text x="55" y="21" text-anchor="middle" font-weight="bold" transform="translate(140 190)">Class2</text><path d="M130 40v60" class="dotted" fill="transparent" marker-end="url(#arrow)"/><path d="M65 190v-30h130v30" class="dotted" fill="transparent" marker-start="url(#arrow-start)" marker-end="url(#arrow)"/><path d="M130 130v30" class="dotted" fill="transparent"/></svg>