<svg width="960" height="260" xmlns="http://www.w3.org/2000/svg"><style>rect, path, line { stroke: #000; stroke-width: 2; } .red { fill: hsl(0,100%,80%); } .yellow { fill: hsl(60,100%,80%); } .green { fill: hsl(120,100%,80%); } .teal { fill: hsl(180,100%,80%); } .blue { fill: hsl(240,100%,80%); } .purple { fill: hsl(300,100%,80%); } marker path, path path { stroke-width: 1; stroke-dasharray: 0; } text { font-family: Helvetica, Arial, sans-serif; font-size: 22px; fill: #000; } .dotted { stroke-dasharray: 6, 3; }</style><marker id="closed-triangle" viewBox="-1 0 12 10" refX="10.5" refY="5" markerWidth="8" markerHeight="8" orient="auto"><path d="M0 0l10 5-10 5z" fill="#fff"/></marker><marker id="arrow" viewBox="-1 0 12 10" refX="10.5" refY="5" markerWidth="8" markerHeight="8" orient="auto"><path d="M0 0l10 5-10 5" fill="transparent"/></marker><path class="yellow" d="M170 40h140v30h-140z"/><text x="70" y="21" text-anchor="middle" font-weight="bold" transform="translate(170 40)">Product</text><path class="yellow" d="M10 130h220v30h-220z"/><text x="110" y="21" text-anchor="middle" font-weight="bold" transform="translate(10 130)">ConcreteProduct1</text><path class="yellow" d="M250 130h220v30h-220z"/><text x="110" y="21" text-anchor="middle" font-weight="bold" transform="translate(250 130)">ConcreteProduct2</text><path class="yellow" d="M510 10h280v90h-280z"/><text x="140" y="21" text-anchor="middle" font-weight="bold" transform="translate(510 10)">«Interface»</text><text x="140" y="51" text-anchor="middle" font-weight="bold" transform="translate(510 10)">ProductFactory</text><path d="M510 68h280"/><text x="13" y="81" text-anchor="middle" transform="translate(510 10)">+</text><text x="30" y="81" transform="translate(510 10)">makeProduct() : Product</text><path class="yellow" d="M350 190h290v60h-290z"/><text x="145" y="21" text-anchor="middle" font-weight="bold" transform="translate(350 190)">Product1Factory</text><path d="M350 218h290"/><text x="13" y="51" text-anchor="middle" transform="translate(350 190)">+</text><text x="30" y="51" transform="translate(350 190)">/makeProduct() : Product</text><path class="yellow" d="M660 190h290v60h-290z"/><text x="145" y="21" text-anchor="middle" font-weight="bold" transform="translate(660 190)">Product2Factory</text><path d="M660 218h290"/><text x="13" y="51" text-anchor="middle" transform="translate(660 190)">+</text><text x="30" y="51" transform="translate(660 190)">/makeProduct() : Product</text><path d="M240 100v-30" fill="transparent" marker-end="url(#closed-triangle)"/><path d="M120 130v-30h240v30" fill="transparent"/><path d="M495 190v-45h310v45" class="dotted" fill="transparent"/><path d="M650 145v-45" class="dotted" fill="transparent" marker-end="url(#closed-triangle)"/><path d="M510 55h-200" class="dotted" fill="transparent" marker-end="url(#arrow)"/></svg>