<svg width="320" height="120" xmlns="http://www.w3.org/2000/svg"><svg width="300" height="240" y="-24" x="-10" xmlns="http://www.w3.org/2000/svg"><style>rect { stroke: #000; stroke-width: 2; } rect.red,ellipse.red { fill: hsl(0,100%,80%); } rect.yellow,ellipse.yellow { fill: hsl(60,100%,80%); } rect.green,ellipse.green { fill: hsl(120,100%,80%); } rect.teal,ellipse.teal { fill: hsl(180,100%,80%); } rect.blue,ellipse.blue { fill: hsl(240,100%,80%); } rect.purple,ellipse.purple { fill: hsl(300,100%,80%); } line { stroke-width: 2; stroke: #000; } text { text-anchor: middle; font-family: Helvetica, Arial, sans-serif; font-size: 22px; fill: #000; } ellipse { stroke-width: 2; stroke: #000; fill: #FFF } path { stroke: #000; stroke-width: 2; }</style><g transform="translate(270 30)"><path d="M0 0v60"/><path d="M0 0l-60 60"/><path d="M0 0l-120 60"/><ellipse ry="20" rx="20"/><text y="7">2</text><g transform="translate(0 60)"><ellipse ry="20" rx="20" class="blue"/><text y="7">8</text></g><g transform="translate(-60 60)"><path d="M0 0v60"/><ellipse ry="20" rx="20" class="green"/><text y="7">5</text><g transform="translate(0 60)"><ellipse ry="20" rx="20" class="green"/><text y="7">11</text></g></g><g transform="translate(-120 60)"><path d="M0 0v60"/><path d="M0 0l-60 60"/><ellipse ry="20" rx="20" class="red"/><text y="7">3</text><g transform="translate(0 60)"><ellipse ry="20" rx="20" class="red"/><text y="7">12</text></g><g transform="translate(-60 60)"><path d="M0 0v60"/><ellipse ry="20" rx="20" class="red"/><text y="7">6</text><g transform="translate(0 60)"><ellipse ry="20" rx="20" class="red"/><text y="7">14</text></g></g></g></g></svg></svg>