<?xml version="1.0" standalone="yes"?>
<svg width="420" height="100" version="1.1" xmlns="http://www.w3.org/2000/svg">
	<style>
		rect, path, line { stroke: #000; stroke-width: 2; }
		.red { fill: hsl(0,100%,80%); }
		.yellow { fill: hsl(60,100%,80%); }
		.green { fill: hsl(120,100%,80%); }
		.teal { fill: hsl(180,100%,80%); }
		.blue { fill: hsl(240,100%,80%); }
		.purple { fill: hsl(300,100%,80%); }
		text { text-anchor: middle; font-family: Helvetica, Arial, sans-serif; font-size: 22px; fill: #000; }
		ellipse { stroke-width: 2; stroke: #000; fill: #FFF }
	</style>
	<marker id="arrow-r" viewBox="0 0 10 10" refX="5" refY="5" orient="auto">
		<path d="M 0 0 L 10 5 L 0 10" stroke-width="0"/>
	</marker>
	<marker id="arrow-rd" viewBox="0 0 10 10" refX="9" refY="4" orient="30">
		<path d="M 0 0 L 10 5 L 0 10" stroke-width="0"/>
	</marker>
	<marker id="arrow-ru" viewBox="0 0 10 10" refX="9" refY="6" orient="-30">
		<path d="M 0 0 L 10 5 L 0 10" stroke-width="0"/>
	</marker>
	<g transform="translate(30,50)">
		<g>
			<ellipse ry="20" rx="20" class="red" />
			<path d="m20 0l20 0" stroke-width="2" />
			<path d="m14.142 -14.142 c46.868,-30 91.716,0 91.716,0" fill="none" stroke-width="2"/>
			<text y="7" x="0">[0]</text>
		</g>
		<g transform="translate(60,0)">
			<ellipse ry="20" rx="20" cy="0" cx="0" class="yellow" />
			<path d="m14.142 14.142 c46.868,30 91.716,0 91.716,0" fill="none" stroke-width="2"/>
			<path d="m14.142 14.142 c76.868,50 151.716,0 151.716,0" fill="none" stroke-width="2"/>
			<text y="7" x="0">[1]</text>
		</g>
		<g transform="translate(120,0)">
			<ellipse ry="20" rx="20" cy="0" cx="0" class="green" />
			<path d="m14.142 -14.142 c76.868,-30 151.716,0 151.716,0" fill="none" stroke-width="2"/>
			<path d="m14.142 -14.142 c106.868,-50 211.716,0 211.716,0" fill="none" stroke-width="2"/>
			<text y="7" x="0">[2]</text>
		</g>
		<g transform="translate(180,0)">
			<ellipse ry="20" rx="20" cy="0" cx="0" class="teal" />
			<text y="7" x="0">[3]</text>
		</g>
		<g transform="translate(240,0)">
			<ellipse ry="20" rx="20" cy="0" cx="0" class="blue" />
			<text y="7" x="0">[4]</text>
		</g>
		<g transform="translate(300,0)">
			<ellipse ry="20" rx="20" cy="0" cx="0" class="purple" />
			<text y="7" x="0">[5]</text>
		</g>
		<g transform="translate(360,0)">
			<ellipse ry="20" rx="20" cy="0" cx="0" class="red" />
			<text y="7" x="0">[6]</text>
		</g>
	</g>
</svg>
