<svg width="700" height="380" xmlns="http://www.w3.org/2000/svg"><style>rect, path, line { stroke: #000; stroke-width: 2; } .red { fill: hsl(0,100%,80%); } .yellow { fill: hsl(60,100%,80%); } .green { fill: hsl(120,100%,80%); } .teal { fill: hsl(180,100%,80%); } .blue { fill: hsl(240,100%,80%); } rect.purple { fill: hsl(300,100%,80%); } text { font-family: Helvetica, Arial, sans-serif; font-size: 22px; fill: #000; } .dotted { stroke-dasharray: 6, 3; } marker path, path path { stroke-width: 1; stroke-dasharray: 0; }</style><marker id="closed-triangle" viewBox="-1 0 12 10" refX="10.5" refY="5" markerWidth="8" markerHeight="8" orient="auto"><path d="M0 0l10 5-10 5z" fill="#fff"/></marker><marker id="diamond" viewBox="0 -1 10 12" refX="10" refY="5" markerWidth="14" markerHeight="7" orient="auto" preserveAspectRatio="none"><path d="M5 0l5 5-5 5-5-5 5-5z" fill="#fff"/></marker><path class="yellow" d="M150 10h260v90h-260z"/><text x="130" y="21" text-anchor="middle" font-weight="bold" transform="translate(150 10)">«Interface»</text><text x="130" y="51" text-anchor="middle" font-weight="bold" transform="translate(150 10)">ComponentInterface</text><path d="M150 68h260"/><text x="13" y="81" text-anchor="middle" transform="translate(150 10)">+</text><text x="30" y="81" transform="translate(150 10)">operation()</text><path class="yellow" d="M10 160h260v60h-260z"/><text x="130" y="21" text-anchor="middle" font-weight="bold" transform="translate(10 160)">ConcreteComponent</text><path d="M10 188h260"/><text x="13" y="51" text-anchor="middle" transform="translate(10 160)">+</text><text x="30" y="51" transform="translate(10 160)">operation()</text><path class="yellow" d="M290 160h370v90h-370z"/><text x="185" y="21" text-anchor="middle" font-weight="bold" font-style="italic" transform="translate(290 160)">Decorator</text><path d="M290 188h370"/><text x="13" y="51" text-anchor="middle" transform="translate(290 160)">-</text><text x="30" y="51" transform="translate(290 160)">component : ComponentInterface</text><path d="M290 218h370"/><text x="13" y="81" text-anchor="middle" transform="translate(290 160)">+</text><text x="30" y="81" transform="translate(290 160)">operation()</text><path class="yellow" d="M350 310h220v60h-220z"/><text x="110" y="21" text-anchor="middle" font-weight="bold" transform="translate(350 310)">ConcreteDecorator</text><path d="M350 338h220"/><text x="13" y="51" text-anchor="middle" transform="translate(350 310)">+</text><text x="30" y="51" transform="translate(350 310)">operation()</text><path d="M280 130v-30" class="dotted" fill="transparent" marker-end="url(#closed-triangle)"/><path d="M140 160v-30h335v30" class="dotted" fill="transparent"/><path d="M460 310v-60" fill="transparent" marker-end="url(#closed-triangle)"/><path d="M410 55h280v150h-30" fill="transparent" marker-end="url(#diamond)"/></svg>