<svg width="200" height="410" xmlns="http://www.w3.org/2000/svg"><style>rect, line, path { stroke: #000; stroke-width: 2; } .red { fill: hsl(0,100%,80%); } .yellow { fill: hsl(60,100%,80%); } .green { fill: hsl(120,100%,80%); } .teal { fill: hsl(180,100%,80%); } .blue { fill: hsl(240,100%,80%); } .purple { fill: hsl(300,100%,80%); } .l-red { stroke: hsl(0,75%,40%); } .l-yellow { stroke: hsl(60,75%,40%); } .l-green { stroke: hsl(120,75%,40%); } .l-teal { stroke: hsl(180,75%,40%); } .l-blue { stroke: hsl(240,75%,40%); } .l-purple { stroke: hsl(300,75%,40%); } text { text-anchor: middle; font-family: Helvetica, Arial, sans-serif; font-size: 22px; fill: #000; }</style><path class="l-teal" d="M60 40l-20 30"/><path class="l-green" d="M80 40l-20 30"/><path class="l-yellow" d="M100 40v30"/><path class="l-blue" d="M120 40v30"/><path class="l-red" d="M140 40v30"/><path class="teal" d="M50 10h20v30h-20z"/><path class="green" d="M70 10h20v30h-20z"/><path class="yellow" d="M90 10h20v30h-20z"/><path class="blue" d="M110 10h20v30h-20z"/><path class="red" d="M130 10h20v30h-20z"/><text y="23" x="50" transform="translate(10 10)">9</text><text y="23" x="70" transform="translate(10 10)">6</text><text y="23" x="90" transform="translate(10 10)">2</text><text y="23" x="110" transform="translate(10 10)">9</text><text y="23" x="130" transform="translate(10 10)">1</text><path class="l-teal" d="M40 100l-20 90"/><path class="l-green" d="M60 100v90"/><path class="l-yellow" d="M100 100v30"/><path class="l-blue" d="M120 100v30"/><path class="l-red" d="M140 100l20 30"/><path class="teal" d="M30 70h20v30h-20z"/><path class="green" d="M50 70h20v30h-20z"/><path class="yellow" d="M90 70h20v30h-20z"/><path class="blue" d="M110 70h20v30h-20z"/><path class="red" d="M130 70h20v30h-20z"/><text y="23" x="30" transform="translate(10 70)">9</text><text y="23" x="50" transform="translate(10 70)">6</text><text y="23" x="90" transform="translate(10 70)">2</text><text y="23" x="110" transform="translate(10 70)">9</text><text y="23" x="130" transform="translate(10 70)">1</text><path class="l-yellow" d="M100 160v30"/><path class="l-blue" d="M120 160l20 30"/><path class="l-red" d="M160 160l20 30"/><path class="yellow" d="M90 130h20v30h-20z"/><path class="blue" d="M110 130h20v30h-20z"/><path class="red" d="M150 130h20v30h-20z"/><text y="23" x="90" transform="translate(10 130)">2</text><text y="23" x="110" transform="translate(10 130)">9</text><text y="23" x="150" transform="translate(10 130)">1</text><path class="l-teal" d="M20 220l40 90"/><path class="l-green" d="M60 220l-20 90"/><path class="l-yellow" d="M100 220v30"/><path class="l-blue" d="M140 220l-20 30"/><path class="l-red" d="M180 220l-20 30"/><path class="teal" d="M10 190h20v30h-20z"/><path class="green" d="M50 190h20v30h-20z"/><path class="yellow" d="M90 190h20v30h-20z"/><path class="blue" d="M130 190h20v30h-20z"/><path class="red" d="M170 190h20v30h-20z"/><text y="23" x="10" transform="translate(10 190)">9</text><text y="23" x="50" transform="translate(10 190)">6</text><text y="23" x="90" transform="translate(10 190)">2</text><text y="23" x="130" transform="translate(10 190)">9</text><text y="23" x="170" transform="translate(10 190)">1</text><path class="l-yellow" d="M100 280l20 30"/><path class="l-blue" d="M120 280l20 30"/><path class="l-red" d="M160 280l-60 30"/><path class="yellow" d="M90 250h20v30h-20z"/><path class="blue" d="M110 250h20v30h-20z"/><path class="red" d="M150 250h20v30h-20z"/><text y="23" x="90" transform="translate(10 250)">2</text><text y="23" x="110" transform="translate(10 250)">9</text><text y="23" x="150" transform="translate(10 250)">1</text><path class="l-green" d="M40 340l60 30"/><path class="l-teal" d="M60 340l60 30"/><path class="l-red" d="M100 340l-40 30"/><path class="l-yellow" d="M120 340l-40 30"/><path class="l-blue" d="M140 340v30"/><path class="green" d="M30 310h20v30h-20z"/><path class="teal" d="M50 310h20v30h-20z"/><path class="red" d="M90 310h20v30h-20z"/><path class="yellow" d="M110 310h20v30h-20z"/><path class="blue" d="M130 310h20v30h-20z"/><text y="23" x="30" transform="translate(10 310)">6</text><text y="23" x="50" transform="translate(10 310)">9</text><text y="23" x="90" transform="translate(10 310)">1</text><text y="23" x="110" transform="translate(10 310)">2</text><text y="23" x="130" transform="translate(10 310)">9</text><path class="red" d="M50 370h20v30h-20z"/><path class="yellow" d="M70 370h20v30h-20z"/><path class="green" d="M90 370h20v30h-20z"/><path class="teal" d="M110 370h20v30h-20z"/><path class="blue" d="M130 370h20v30h-20z"/><text y="23" x="50" transform="translate(10 370)">1</text><text y="23" x="70" transform="translate(10 370)">2</text><text y="23" x="90" transform="translate(10 370)">6</text><text y="23" x="110" transform="translate(10 370)">9</text><text y="23" x="130" transform="translate(10 370)">9</text></svg>