<svg width="430" height="510" xmlns="http://www.w3.org/2000/svg"><style>rect, line, path { stroke: #000; stroke-width: 2; } .red { fill: hsl(0,100%,80%); } .yellow { fill: hsl(60,100%,80%); } .green { fill: hsl(120,100%,80%); } .teal { fill: hsl(180,100%,80%); } .blue { fill: hsl(240,100%,80%); } .purple { fill: hsl(300,100%,80%); } .l-red { stroke: hsl(0,75%,40%); } .l-yellow { stroke: hsl(60,75%,40%); } .l-green { stroke: hsl(120,75%,40%); } .l-teal { stroke: hsl(180,75%,40%); } .l-blue { stroke: hsl(240,75%,40%); } .l-purple { stroke: hsl(300,75%,40%); } text { text-anchor: middle; font-family: Helvetica, Arial, sans-serif; font-size: 22px; fill: #000; } .l { text-anchor: start; } .r { text-anchor: end; } .l,.r { font-size: 18px; } .thread { fill: #000; fill-opacity: .15; stroke-width: 0 !important; }</style><path class="thread" d="M10 80h200v350h-200z"/><path class="thread" d="M220 80h200v350h-200z"/><path class="l-teal" d="M125 40l-55 50"/><path class="l-green" d="M145 40l-55 50"/><path class="l-yellow" d="M165 40l-55 50"/><path class="l-blue" d="M185 40l-55 50"/><path class="l-red" d="M205 40l-55 50"/><path class="teal" d="M115 10h20v30h-20z"/><path class="green" d="M135 10h20v30h-20z"/><path class="yellow" d="M155 10h20v30h-20z"/><path class="blue" d="M175 10h20v30h-20z"/><path class="red" d="M195 10h20v30h-20z"/><text y="23" x="10" transform="translate(115 10)">9</text><text y="23" x="30" transform="translate(115 10)">6</text><text y="23" x="50" transform="translate(115 10)">2</text><text y="23" x="70" transform="translate(115 10)">9</text><text y="23" x="90" transform="translate(115 10)">1</text><path class="l-teal" d="M225 40l55 50"/><path class="l-green" d="M245 40l55 50"/><path class="l-yellow" d="M265 40l55 50"/><path class="l-blue" d="M285 40l55 50"/><path class="l-red" d="M305 40l55 50"/><path class="teal" d="M215 10h20v30h-20z"/><path class="green" d="M235 10h20v30h-20z"/><path class="yellow" d="M255 10h20v30h-20z"/><path class="blue" d="M275 10h20v30h-20z"/><path class="red" d="M295 10h20v30h-20z"/><text y="23" x="10" transform="translate(215 10)">9</text><text y="23" x="30" transform="translate(215 10)">6</text><text y="23" x="50" transform="translate(215 10)">2</text><text y="23" x="70" transform="translate(215 10)">9</text><text y="23" x="90" transform="translate(215 10)">1</text><text y="-3" class="l" transform="translate(10 80)">Thread A</text><path class="l-teal" d="M70 120l-20 30"/><path class="l-green" d="M90 120l-20 30"/><path class="l-yellow" d="M110 120l20 30"/><path class="l-blue" d="M130 120l-20 30"/><path class="l-red" d="M150 120l20 30"/><path class="teal" d="M60 90h20v30h-20z"/><path class="green" d="M80 90h20v30h-20z"/><path class="yellow" d="M100 90h20v30h-20z"/><path class="blue" d="M120 90h20v30h-20z"/><path class="red" d="M140 90h20v30h-20z"/><text y="23" x="50" transform="translate(10 80) translate(10 10)">9</text><text y="23" x="70" transform="translate(10 80) translate(10 10)">6</text><text y="23" x="90" transform="translate(10 80) translate(10 10)">2</text><text y="23" x="110" transform="translate(10 80) translate(10 10)">9</text><text y="23" x="130" transform="translate(10 80) translate(10 10)">1</text><path class="l-teal" d="M50 180l-20 30"/><path class="l-green" d="M70 180v30"/><path class="l-blue" d="M110 180v30"/><path class="l-yellow" d="M130 180l20 30"/><path class="l-red" d="M170 180l20 30"/><path class="teal" d="M40 150h20v30h-20z"/><path class="green" d="M60 150h20v30h-20z"/><path class="blue" d="M100 150h20v30h-20z"/><path class="yellow" d="M120 150h20v30h-20z"/><path class="red" d="M160 150h20v30h-20z"/><text y="23" x="30" transform="translate(10 80) translate(10 70)">9</text><text y="23" x="50" transform="translate(10 80) translate(10 70)">6</text><text y="23" x="90" transform="translate(10 80) translate(10 70)">9</text><text y="23" x="110" transform="translate(10 80) translate(10 70)">2</text><text y="23" x="150" transform="translate(10 80) translate(10 70)">1</text><path class="l-teal" d="M30 240l40 90"/><path class="l-green" d="M70 240l-20 90"/><path class="l-blue" d="M110 240l20 30"/><path class="l-yellow" d="M150 240l-40 30"/><path class="l-red" d="M190 240l-20 30"/><path class="teal" d="M20 210h20v30h-20z"/><path class="green" d="M60 210h20v30h-20z"/><path class="blue" d="M100 210h20v30h-20z"/><path class="yellow" d="M140 210h20v30h-20z"/><path class="red" d="M180 210h20v30h-20z"/><text y="23" x="10" transform="translate(10 80) translate(10 130)">9</text><text y="23" x="50" transform="translate(10 80) translate(10 130)">6</text><text y="23" x="90" transform="translate(10 80) translate(10 130)">9</text><text y="23" x="130" transform="translate(10 80) translate(10 130)">2</text><text y="23" x="170" transform="translate(10 80) translate(10 130)">1</text><path class="l-yellow" d="M110 300l20 30"/><path class="l-blue" d="M130 300l20 30"/><path class="l-red" d="M170 300l-60 30"/><path class="yellow" d="M100 270h20v30h-20z"/><path class="blue" d="M120 270h20v30h-20z"/><path class="red" d="M160 270h20v30h-20z"/><text y="23" x="90" transform="translate(10 80) translate(10 190)">2</text><text y="23" x="110" transform="translate(10 80) translate(10 190)">9</text><text y="23" x="150" transform="translate(10 80) translate(10 190)">1</text><path class="l-green" d="M50 360l60 30"/><path class="l-teal" d="M70 360l60 30"/><path class="l-red" d="M110 360l-40 30"/><path class="l-yellow" d="M130 360l-40 30"/><path class="l-blue" d="M150 360v30"/><path class="green" d="M40 330h20v30h-20z"/><path class="teal" d="M60 330h20v30h-20z"/><path class="red" d="M100 330h20v30h-20z"/><path class="yellow" d="M120 330h20v30h-20z"/><path class="blue" d="M140 330h20v30h-20z"/><text y="23" x="30" transform="translate(10 80) translate(10 250)">6</text><text y="23" x="50" transform="translate(10 80) translate(10 250)">9</text><text y="23" x="90" transform="translate(10 80) translate(10 250)">1</text><text y="23" x="110" transform="translate(10 80) translate(10 250)">2</text><text y="23" x="130" transform="translate(10 80) translate(10 250)">9</text><path class="l-red" d="M70 420l55 50"/><path class="l-yellow" d="M90 420l75 50"/><path class="l-green" d="M110 420l95 50"/><path class="l-teal" d="M130 420l115 50"/><path class="l-blue" d="M150 420l115 50"/><path class="red" d="M60 390h20v30h-20z"/><path class="yellow" d="M80 390h20v30h-20z"/><path class="green" d="M100 390h20v30h-20z"/><path class="teal" d="M120 390h20v30h-20z"/><path class="blue" d="M140 390h20v30h-20z"/><text y="23" x="50" transform="translate(10 80) translate(10 310)">1</text><text y="23" x="70" transform="translate(10 80) translate(10 310)">2</text><text y="23" x="90" transform="translate(10 80) translate(10 310)">6</text><text y="23" x="110" transform="translate(10 80) translate(10 310)">9</text><text y="23" x="130" transform="translate(10 80) translate(10 310)">9</text><text y="-3" x="200" class="r" transform="translate(220 80)">Thread B</text><path class="l-teal" d="M280 120l-20 30"/><path class="l-green" d="M300 120l-20 30"/><path class="l-yellow" d="M320 120l20 30"/><path class="l-blue" d="M340 120l-20 30"/><path class="l-red" d="M360 120l20 30"/><path class="teal" d="M270 90h20v30h-20z"/><path class="green" d="M290 90h20v30h-20z"/><path class="yellow" d="M310 90h20v30h-20z"/><path class="blue" d="M330 90h20v30h-20z"/><path class="red" d="M350 90h20v30h-20z"/><text y="23" x="50" transform="translate(220 80) translate(10 10)">9</text><text y="23" x="70" transform="translate(220 80) translate(10 10)">6</text><text y="23" x="90" transform="translate(220 80) translate(10 10)">2</text><text y="23" x="110" transform="translate(220 80) translate(10 10)">9</text><text y="23" x="130" transform="translate(220 80) translate(10 10)">1</text><path class="l-teal" d="M260 180l-20 30"/><path class="l-green" d="M280 180v30"/><path class="l-blue" d="M320 180v30"/><path class="l-yellow" d="M340 180l20 30"/><path class="l-red" d="M380 180l20 30"/><path class="teal" d="M250 150h20v30h-20z"/><path class="green" d="M270 150h20v30h-20z"/><path class="blue" d="M310 150h20v30h-20z"/><path class="yellow" d="M330 150h20v30h-20z"/><path class="red" d="M370 150h20v30h-20z"/><text y="23" x="30" transform="translate(220 80) translate(10 70)">9</text><text y="23" x="50" transform="translate(220 80) translate(10 70)">6</text><text y="23" x="90" transform="translate(220 80) translate(10 70)">9</text><text y="23" x="110" transform="translate(220 80) translate(10 70)">2</text><text y="23" x="150" transform="translate(220 80) translate(10 70)">1</text><path class="l-teal" d="M240 240l40 90"/><path class="l-green" d="M280 240l-20 90"/><path class="l-blue" d="M320 240l20 30"/><path class="l-yellow" d="M360 240l-40 30"/><path class="l-red" d="M400 240l-20 30"/><path class="teal" d="M230 210h20v30h-20z"/><path class="green" d="M270 210h20v30h-20z"/><path class="blue" d="M310 210h20v30h-20z"/><path class="yellow" d="M350 210h20v30h-20z"/><path class="red" d="M390 210h20v30h-20z"/><text y="23" x="10" transform="translate(220 80) translate(10 130)">9</text><text y="23" x="50" transform="translate(220 80) translate(10 130)">6</text><text y="23" x="90" transform="translate(220 80) translate(10 130)">9</text><text y="23" x="130" transform="translate(220 80) translate(10 130)">2</text><text y="23" x="170" transform="translate(220 80) translate(10 130)">1</text><path class="l-yellow" d="M320 300l20 30"/><path class="l-blue" d="M340 300l20 30"/><path class="l-red" d="M380 300l-60 30"/><path class="yellow" d="M310 270h20v30h-20z"/><path class="blue" d="M330 270h20v30h-20z"/><path class="red" d="M370 270h20v30h-20z"/><text y="23" x="90" transform="translate(220 80) translate(10 190)">2</text><text y="23" x="110" transform="translate(220 80) translate(10 190)">9</text><text y="23" x="150" transform="translate(220 80) translate(10 190)">1</text><path class="l-green" d="M260 360l60 30"/><path class="l-teal" d="M280 360l60 30"/><path class="l-red" d="M320 360l-40 30"/><path class="l-yellow" d="M340 360l-40 30"/><path class="l-blue" d="M360 360v30"/><path class="green" d="M250 330h20v30h-20z"/><path class="teal" d="M270 330h20v30h-20z"/><path class="red" d="M310 330h20v30h-20z"/><path class="yellow" d="M330 330h20v30h-20z"/><path class="blue" d="M350 330h20v30h-20z"/><text y="23" x="30" transform="translate(220 80) translate(10 250)">6</text><text y="23" x="50" transform="translate(220 80) translate(10 250)">9</text><text y="23" x="90" transform="translate(220 80) translate(10 250)">1</text><text y="23" x="110" transform="translate(220 80) translate(10 250)">2</text><text y="23" x="130" transform="translate(220 80) translate(10 250)">9</text><path class="l-red" d="M280 420l-135 50"/><path class="l-yellow" d="M300 420l-115 50"/><path class="l-green" d="M320 420l-95 50"/><path class="l-teal" d="M340 420l-55 50"/><path class="l-blue" d="M360 420l-55 50"/><path class="red" d="M270 390h20v30h-20z"/><path class="yellow" d="M290 390h20v30h-20z"/><path class="green" d="M310 390h20v30h-20z"/><path class="teal" d="M330 390h20v30h-20z"/><path class="blue" d="M350 390h20v30h-20z"/><text y="23" x="50" transform="translate(220 80) translate(10 310)">1</text><text y="23" x="70" transform="translate(220 80) translate(10 310)">2</text><text y="23" x="90" transform="translate(220 80) translate(10 310)">6</text><text y="23" x="110" transform="translate(220 80) translate(10 310)">9</text><text y="23" x="130" transform="translate(220 80) translate(10 310)">9</text><path class="red" d="M115 470h20v30h-20z"/><path class="red" d="M135 470h20v30h-20z"/><path class="yellow" d="M155 470h20v30h-20z"/><path class="yellow" d="M175 470h20v30h-20z"/><path class="green" d="M195 470h20v30h-20z"/><text y="23" x="10" transform="translate(115 470)">1</text><text y="23" x="30" transform="translate(115 470)">1</text><text y="23" x="50" transform="translate(115 470)">2</text><text y="23" x="70" transform="translate(115 470)">2</text><text y="23" x="90" transform="translate(115 470)">6</text><path class="green" d="M215 470h20v30h-20z"/><path class="teal" d="M235 470h20v30h-20z"/><path class="blue" d="M255 470h20v30h-20z"/><path class="teal" d="M275 470h20v30h-20z"/><path class="blue" d="M295 470h20v30h-20z"/><text y="23" x="10" transform="translate(215 470)">6</text><text y="23" x="30" transform="translate(215 470)">9</text><text y="23" x="50" transform="translate(215 470)">9</text><text y="23" x="70" transform="translate(215 470)">9</text><text y="23" x="90" transform="translate(215 470)">9</text></svg>