<svg width="430" height="570" xmlns="http://www.w3.org/2000/svg"><style>rect, line, path { stroke: #000; stroke-width: 2; } .red { fill: hsl(0,100%,80%); } .yellow { fill: hsl(60,100%,80%); } .green { fill: hsl(120,100%,80%); } .teal { fill: hsl(180,100%,80%); } .blue { fill: hsl(240,100%,80%); } .purple { fill: hsl(300,100%,80%); } .l-red { stroke: hsl(0,75%,40%); } .l-yellow { stroke: hsl(60,75%,40%); } .l-green { stroke: hsl(120,75%,40%); } .l-teal { stroke: hsl(180,75%,40%); } .l-blue { stroke: hsl(240,75%,40%); } .l-purple { stroke: hsl(300,75%,40%); } text { text-anchor: middle; font-family: Helvetica, Arial, sans-serif; font-size: 22px; fill: #000; } .l { text-anchor: start; } .r { text-anchor: end; } .l,.r { font-size: 18px; } .thread { fill: #000; fill-opacity: .15; stroke-width: 0 !important; }</style><path class="thread" d="M10 80h200v350h-200z"/><path class="thread" d="M220 80h200v350h-200z"/><path class="l-teal" d="M125 40l-55 50"/><path class="l-green" d="M145 40l-55 50"/><path class="l-yellow" d="M165 40l-55 50"/><path class="l-blue" d="M185 40l-55 50"/><path class="l-red" d="M205 40l-55 50"/><path class="teal" d="M115 10h20v30h-20z"/><path class="green" d="M135 10h20v30h-20z"/><path class="yellow" d="M155 10h20v30h-20z"/><path class="blue" d="M175 10h20v30h-20z"/><path class="red" d="M195 10h20v30h-20z"/><text y="23" x="10" transform="translate(115 10)">9</text><text y="23" x="30" transform="translate(115 10)">6</text><text y="23" x="50" transform="translate(115 10)">2</text><text y="23" x="70" transform="translate(115 10)">9</text><text y="23" x="90" transform="translate(115 10)">1</text><path class="l-teal" d="M225 40l55 50"/><path class="l-green" d="M245 40l55 50"/><path class="l-yellow" d="M265 40l55 50"/><path class="l-blue" d="M285 40l55 50"/><path class="l-red" d="M305 40l55 50"/><path class="teal" d="M215 10h20v30h-20z"/><path class="green" d="M235 10h20v30h-20z"/><path class="yellow" d="M255 10h20v30h-20z"/><path class="blue" d="M275 10h20v30h-20z"/><path class="red" d="M295 10h20v30h-20z"/><text y="23" x="10" transform="translate(215 10)">9</text><text y="23" x="30" transform="translate(215 10)">6</text><text y="23" x="50" transform="translate(215 10)">2</text><text y="23" x="70" transform="translate(215 10)">9</text><text y="23" x="90" transform="translate(215 10)">1</text><text y="-3" class="l" transform="translate(10 80)">Thread A</text><path class="l-teal" d="M70 120l-20 30"/><path class="l-green" d="M90 120l-20 30"/><path class="l-yellow" d="M110 120v30"/><path class="l-blue" d="M130 120v30"/><path class="l-red" d="M150 120v30"/><path class="teal" d="M60 90h20v30h-20z"/><path class="green" d="M80 90h20v30h-20z"/><path class="yellow" d="M100 90h20v30h-20z"/><path class="blue" d="M120 90h20v30h-20z"/><path class="red" d="M140 90h20v30h-20z"/><text y="23" x="50" transform="translate(10 80) translate(10 10)">9</text><text y="23" x="70" transform="translate(10 80) translate(10 10)">6</text><text y="23" x="90" transform="translate(10 80) translate(10 10)">2</text><text y="23" x="110" transform="translate(10 80) translate(10 10)">9</text><text y="23" x="130" transform="translate(10 80) translate(10 10)">1</text><path class="l-teal" d="M50 180l-20 90"/><path class="l-green" d="M70 180v90"/><path class="l-yellow" d="M110 180v30"/><path class="l-blue" d="M130 180v30"/><path class="l-red" d="M150 180l20 30"/><path class="teal" d="M40 150h20v30h-20z"/><path class="green" d="M60 150h20v30h-20z"/><path class="yellow" d="M100 150h20v30h-20z"/><path class="blue" d="M120 150h20v30h-20z"/><path class="red" d="M140 150h20v30h-20z"/><text y="23" x="30" transform="translate(10 80) translate(10 70)">9</text><text y="23" x="50" transform="translate(10 80) translate(10 70)">6</text><text y="23" x="90" transform="translate(10 80) translate(10 70)">2</text><text y="23" x="110" transform="translate(10 80) translate(10 70)">9</text><text y="23" x="130" transform="translate(10 80) translate(10 70)">1</text><path class="l-yellow" d="M110 240v30"/><path class="l-blue" d="M130 240l20 30"/><path class="l-red" d="M170 240l20 30"/><path class="yellow" d="M100 210h20v30h-20z"/><path class="blue" d="M120 210h20v30h-20z"/><path class="red" d="M160 210h20v30h-20z"/><text y="23" x="90" transform="translate(10 80) translate(10 130)">2</text><text y="23" x="110" transform="translate(10 80) translate(10 130)">9</text><text y="23" x="150" transform="translate(10 80) translate(10 130)">1</text><path class="l-teal" d="M30 300l40 90"/><path class="l-green" d="M70 300l-20 90"/><path class="l-yellow" d="M110 300v30"/><path class="l-blue" d="M150 300l-20 30"/><path class="l-red" d="M190 300l-20 30"/><path class="teal" d="M20 270h20v30h-20z"/><path class="green" d="M60 270h20v30h-20z"/><path class="yellow" d="M100 270h20v30h-20z"/><path class="blue" d="M140 270h20v30h-20z"/><path class="red" d="M180 270h20v30h-20z"/><text y="23" x="10" transform="translate(10 80) translate(10 190)">9</text><text y="23" x="50" transform="translate(10 80) translate(10 190)">6</text><text y="23" x="90" transform="translate(10 80) translate(10 190)">2</text><text y="23" x="130" transform="translate(10 80) translate(10 190)">9</text><text y="23" x="170" transform="translate(10 80) translate(10 190)">1</text><path class="l-yellow" d="M110 360l20 30"/><path class="l-blue" d="M130 360l20 30"/><path class="l-red" d="M170 360l-60 30"/><path class="yellow" d="M100 330h20v30h-20z"/><path class="blue" d="M120 330h20v30h-20z"/><path class="red" d="M160 330h20v30h-20z"/><text y="23" x="90" transform="translate(10 80) translate(10 250)">2</text><text y="23" x="110" transform="translate(10 80) translate(10 250)">9</text><text y="23" x="150" transform="translate(10 80) translate(10 250)">1</text><path class="l-green" d="M50 420l60 30"/><path class="l-teal" d="M70 420l60 30"/><path class="l-red" d="M110 420l-40 30"/><path class="l-yellow" d="M130 420l-40 30"/><path class="l-blue" d="M150 420v30"/><path class="green" d="M40 390h20v30h-20z"/><path class="teal" d="M60 390h20v30h-20z"/><path class="red" d="M100 390h20v30h-20z"/><path class="yellow" d="M120 390h20v30h-20z"/><path class="blue" d="M140 390h20v30h-20z"/><text y="23" x="30" transform="translate(10 80) translate(10 310)">6</text><text y="23" x="50" transform="translate(10 80) translate(10 310)">9</text><text y="23" x="90" transform="translate(10 80) translate(10 310)">1</text><text y="23" x="110" transform="translate(10 80) translate(10 310)">2</text><text y="23" x="130" transform="translate(10 80) translate(10 310)">9</text><path class="l-red" d="M70 480l55 50"/><path class="l-yellow" d="M90 480l75 50"/><path class="l-green" d="M110 480l95 50"/><path class="l-teal" d="M130 480l115 50"/><path class="l-blue" d="M150 480l115 50"/><path class="red" d="M60 450h20v30h-20z"/><path class="yellow" d="M80 450h20v30h-20z"/><path class="green" d="M100 450h20v30h-20z"/><path class="teal" d="M120 450h20v30h-20z"/><path class="blue" d="M140 450h20v30h-20z"/><text y="23" x="50" transform="translate(10 80) translate(10 370)">1</text><text y="23" x="70" transform="translate(10 80) translate(10 370)">2</text><text y="23" x="90" transform="translate(10 80) translate(10 370)">6</text><text y="23" x="110" transform="translate(10 80) translate(10 370)">9</text><text y="23" x="130" transform="translate(10 80) translate(10 370)">9</text><text y="-3" x="200" class="r" transform="translate(220 80)">Thread B</text><path class="l-teal" d="M280 120l-20 30"/><path class="l-green" d="M300 120l-20 30"/><path class="l-yellow" d="M320 120v30"/><path class="l-blue" d="M340 120v30"/><path class="l-red" d="M360 120v30"/><path class="teal" d="M270 90h20v30h-20z"/><path class="green" d="M290 90h20v30h-20z"/><path class="yellow" d="M310 90h20v30h-20z"/><path class="blue" d="M330 90h20v30h-20z"/><path class="red" d="M350 90h20v30h-20z"/><text y="23" x="50" transform="translate(220 80) translate(10 10)">9</text><text y="23" x="70" transform="translate(220 80) translate(10 10)">6</text><text y="23" x="90" transform="translate(220 80) translate(10 10)">2</text><text y="23" x="110" transform="translate(220 80) translate(10 10)">9</text><text y="23" x="130" transform="translate(220 80) translate(10 10)">1</text><path class="l-teal" d="M260 180l-20 90"/><path class="l-green" d="M280 180v90"/><path class="l-yellow" d="M320 180v30"/><path class="l-blue" d="M340 180v30"/><path class="l-red" d="M360 180l20 30"/><path class="teal" d="M250 150h20v30h-20z"/><path class="green" d="M270 150h20v30h-20z"/><path class="yellow" d="M310 150h20v30h-20z"/><path class="blue" d="M330 150h20v30h-20z"/><path class="red" d="M350 150h20v30h-20z"/><text y="23" x="30" transform="translate(220 80) translate(10 70)">9</text><text y="23" x="50" transform="translate(220 80) translate(10 70)">6</text><text y="23" x="90" transform="translate(220 80) translate(10 70)">2</text><text y="23" x="110" transform="translate(220 80) translate(10 70)">9</text><text y="23" x="130" transform="translate(220 80) translate(10 70)">1</text><path class="l-yellow" d="M320 240v30"/><path class="l-blue" d="M340 240l20 30"/><path class="l-red" d="M380 240l20 30"/><path class="yellow" d="M310 210h20v30h-20z"/><path class="blue" d="M330 210h20v30h-20z"/><path class="red" d="M370 210h20v30h-20z"/><text y="23" x="90" transform="translate(220 80) translate(10 130)">2</text><text y="23" x="110" transform="translate(220 80) translate(10 130)">9</text><text y="23" x="150" transform="translate(220 80) translate(10 130)">1</text><path class="l-teal" d="M240 300l40 90"/><path class="l-green" d="M280 300l-20 90"/><path class="l-yellow" d="M320 300v30"/><path class="l-blue" d="M360 300l-20 30"/><path class="l-red" d="M400 300l-20 30"/><path class="teal" d="M230 270h20v30h-20z"/><path class="green" d="M270 270h20v30h-20z"/><path class="yellow" d="M310 270h20v30h-20z"/><path class="blue" d="M350 270h20v30h-20z"/><path class="red" d="M390 270h20v30h-20z"/><text y="23" x="10" transform="translate(220 80) translate(10 190)">9</text><text y="23" x="50" transform="translate(220 80) translate(10 190)">6</text><text y="23" x="90" transform="translate(220 80) translate(10 190)">2</text><text y="23" x="130" transform="translate(220 80) translate(10 190)">9</text><text y="23" x="170" transform="translate(220 80) translate(10 190)">1</text><path class="l-yellow" d="M320 360l20 30"/><path class="l-blue" d="M340 360l20 30"/><path class="l-red" d="M380 360l-60 30"/><path class="yellow" d="M310 330h20v30h-20z"/><path class="blue" d="M330 330h20v30h-20z"/><path class="red" d="M370 330h20v30h-20z"/><text y="23" x="90" transform="translate(220 80) translate(10 250)">2</text><text y="23" x="110" transform="translate(220 80) translate(10 250)">9</text><text y="23" x="150" transform="translate(220 80) translate(10 250)">1</text><path class="l-green" d="M260 420l60 30"/><path class="l-teal" d="M280 420l60 30"/><path class="l-red" d="M320 420l-40 30"/><path class="l-yellow" d="M340 420l-40 30"/><path class="l-blue" d="M360 420v30"/><path class="green" d="M250 390h20v30h-20z"/><path class="teal" d="M270 390h20v30h-20z"/><path class="red" d="M310 390h20v30h-20z"/><path class="yellow" d="M330 390h20v30h-20z"/><path class="blue" d="M350 390h20v30h-20z"/><text y="23" x="30" transform="translate(220 80) translate(10 310)">6</text><text y="23" x="50" transform="translate(220 80) translate(10 310)">9</text><text y="23" x="90" transform="translate(220 80) translate(10 310)">1</text><text y="23" x="110" transform="translate(220 80) translate(10 310)">2</text><text y="23" x="130" transform="translate(220 80) translate(10 310)">9</text><path class="l-red" d="M280 480l-135 50"/><path class="l-yellow" d="M300 480l-115 50"/><path class="l-green" d="M320 480l-95 50"/><path class="l-teal" d="M340 480l-55 50"/><path class="l-blue" d="M360 480l-55 50"/><path class="red" d="M270 450h20v30h-20z"/><path class="yellow" d="M290 450h20v30h-20z"/><path class="green" d="M310 450h20v30h-20z"/><path class="teal" d="M330 450h20v30h-20z"/><path class="blue" d="M350 450h20v30h-20z"/><text y="23" x="50" transform="translate(220 80) translate(10 370)">1</text><text y="23" x="70" transform="translate(220 80) translate(10 370)">2</text><text y="23" x="90" transform="translate(220 80) translate(10 370)">6</text><text y="23" x="110" transform="translate(220 80) translate(10 370)">9</text><text y="23" x="130" transform="translate(220 80) translate(10 370)">9</text><path class="red" d="M115 530h20v30h-20z"/><path class="red" d="M135 530h20v30h-20z"/><path class="yellow" d="M155 530h20v30h-20z"/><path class="yellow" d="M175 530h20v30h-20z"/><path class="green" d="M195 530h20v30h-20z"/><text y="23" x="10" transform="translate(115 530)">1</text><text y="23" x="30" transform="translate(115 530)">1</text><text y="23" x="50" transform="translate(115 530)">2</text><text y="23" x="70" transform="translate(115 530)">2</text><text y="23" x="90" transform="translate(115 530)">6</text><path class="green" d="M215 530h20v30h-20z"/><path class="teal" d="M235 530h20v30h-20z"/><path class="blue" d="M255 530h20v30h-20z"/><path class="teal" d="M275 530h20v30h-20z"/><path class="blue" d="M295 530h20v30h-20z"/><text y="23" x="10" transform="translate(215 530)">6</text><text y="23" x="30" transform="translate(215 530)">9</text><text y="23" x="50" transform="translate(215 530)">9</text><text y="23" x="70" transform="translate(215 530)">9</text><text y="23" x="90" transform="translate(215 530)">9</text></svg>