<svg width="200" height="170" xmlns="http://www.w3.org/2000/svg"><style>rect, path, line { stroke: #000; stroke-width: 2; } .red { fill: hsl(0,100%,80%); } .yellow { fill: hsl(60,100%,80%); } .green { fill: hsl(120,100%,80%); } .teal { fill: hsl(180,100%,80%); } .blue { fill: hsl(240,100%,80%); } .purple { fill: hsl(300,100%,80%); } .grey { fill: hsl(300,0%,90%); } .l-red { stroke: hsl(0,75%,40%); } .l-yellow { stroke: hsl(60,75%,40%); } .l-green { stroke: hsl(120,75%,40%); } .l-teal { stroke: hsl(180,75%,40%); } .l-blue { stroke: hsl(240,75%,40%); } .l-purple { stroke: hsl(300,75%,40%); } text { text-anchor: middle; font-family: Helvetica, Arial, sans-serif; font-size: 22px; fill: #000; }</style><path class="l-blue" d="M50 40l70 30"/><path class="l-purple" d="M70 40l90 30"/><path class="l-red" d="M90 40l-70 30"/><path class="l-green" d="M110 40l-50 30"/><path class="l-teal" d="M130 40l-30 30"/><path class="l-yellow" d="M150 40l-110 30"/><path class="blue" d="M40 10h20v30h-20z"/><path class="purple" d="M60 10h20v30h-20z"/><path class="red" d="M80 10h20v30h-20z"/><path class="green" d="M100 10h20v30h-20z"/><path class="teal" d="M120 10h20v30h-20z"/><path class="yellow" d="M140 10h20v30h-20z"/><text y="23" x="40" transform="translate(10 10)">6</text><text y="23" x="60" transform="translate(10 10)">8</text><text y="23" x="80" transform="translate(10 10)">1</text><text y="23" x="100" transform="translate(10 10)">3</text><text y="23" x="120" transform="translate(10 10)">5</text><text y="23" x="140" transform="translate(10 10)">2</text><path class="l-red" d="M20 100l30 30"/><path class="l-yellow" d="M40 100l30 30"/><path class="l-green" d="M60 100l30 30"/><path class="l-teal" d="M100 100l10 30"/><path class="l-blue" d="M120 100l10 30"/><path class="l-purple" d="M160 100l-10 30"/><path class="red" d="M10 70h20v30h-20z"/><path class="yellow" d="M30 70h20v30h-20z"/><path class="green" d="M50 70h20v30h-20z"/><path class="grey" d="M70 70h20v30h-20z"/><path class="teal" d="M90 70h20v30h-20z"/><path class="blue" d="M110 70h20v30h-20z"/><path class="grey" d="M130 70h20v30h-20z"/><path class="purple" d="M150 70h20v30h-20z"/><path class="grey" d="M170 70h20v30h-20z"/><text y="23" x="10" transform="translate(10 70)">1</text><text y="23" x="30" transform="translate(10 70)">2</text><text y="23" x="50" transform="translate(10 70)">3</text><text y="23" x="90" transform="translate(10 70)">5</text><text y="23" x="110" transform="translate(10 70)">6</text><text y="23" x="150" transform="translate(10 70)">8</text><path class="red" d="M40 130h20v30h-20z"/><path class="yellow" d="M60 130h20v30h-20z"/><path class="green" d="M80 130h20v30h-20z"/><path class="teal" d="M100 130h20v30h-20z"/><path class="blue" d="M120 130h20v30h-20z"/><path class="purple" d="M140 130h20v30h-20z"/><text y="23" x="40" transform="translate(10 130)">1</text><text y="23" x="60" transform="translate(10 130)">2</text><text y="23" x="80" transform="translate(10 130)">3</text><text y="23" x="100" transform="translate(10 130)">5</text><text y="23" x="120" transform="translate(10 130)">6</text><text y="23" x="140" transform="translate(10 130)">8</text></svg>