<?xml version="1.0" standalone="yes"?>
<svg width="1030" height="380" version="1.1" xmlns="http://www.w3.org/2000/svg">
	<style>
		rect, path, line { stroke: #000; stroke-width: 2; }
		.red { fill: hsl(0,100%,80%); }
		.yellow { fill: hsl(60,100%,80%); }
		.green { fill: hsl(120,100%,80%); }
		.teal { fill: hsl(180,100%,80%); }
		.blue { fill: hsl(240,100%,80%); }
		.purple { fill: hsl(300,100%,80%); }
		text { font-family: Helvetica, Arial, sans-serif; font-size: 22px; fill: #000; }
		.dotted { stroke-dasharray: 6, 3; }
		marker path, path path { stroke-width: 1; stroke-dasharray: 0; }
	</style>
	<marker id="closed-triangle" viewBox="-1 0 12 10" refX="10.5" refY="5" markerWidth="8" markerHeight="8" orient="auto">
		<path d="M 0 0 L 10 5 L 0 10z" fill="#fff"/>
	</marker>
	<marker id="diamond" viewBox="0 -1 10 12" refX="10" refY="5" markerWidth="14" markerHeight="7" orient="auto" preserveAspectRatio="none">
		<path d="m5 0l5 5l-5 5l-5 -5l5 -5z" fill="#fff"/>
	</marker>
	<marker id="arrow" viewBox="-1 0 12 10" refX="10.5" refY="5" markerWidth="8" markerHeight="8" orient="auto">
		<path d="M 0 0 L 10 5 L 0 10" fill="transparent"/>
	</marker>
	<g>
		<g transform="translate(215,55)">
			<rect x="0" y="0" width="100" height="30" class="yellow" />
			<text x="50" y="21" text-anchor="middle" font-weight="bold">Client</text>
		</g>
		<g transform="translate(585,10)">
			<rect x="0" y="0" width="280" height="120" class="yellow" />
			<text x="140" y="21" text-anchor="middle" font-weight="bold">«Interface»</text>
			<text x="140" y="51" text-anchor="middle" font-weight="bold">Visitor</text>
			<line x1="0" y1="58" x2="280" y2="58" />
			<text x="13" y="81" text-anchor="middle">+</text>
			<text x="30" y="81">visit(ConcreteElementA)</text>
			<text x="13" y="111" text-anchor="middle">+</text>
			<text x="30" y="111">visit(ConcreteElementB)</text>
		</g>
		<g transform="translate(165,160)">
			<rect x="0" y="0" width="200" height="90" class="yellow" />
			<text x="100" y="21" text-anchor="middle" font-weight="bold">«Interface»</text>
			<text x="100" y="51" text-anchor="middle" font-weight="bold">Element</text>
			<line x1="0" y1="58" x2="200" y2="58" />
			<text x="13" y="81" text-anchor="middle">+</text>
			<text x="30" y="81">accept(Visitor)</text>
		</g>
		<g transform="translate(10,310)">
			<rect x="0" y="0" width="240" height="60" class="yellow" />
			<text x="120" y="21" text-anchor="middle" font-weight="bold">ConcreteElementA</text>
			<line x1="0" y1="28" x2="240" y2="28" />
			<text x="13" y="51" text-anchor="middle">+</text>
			<text x="30" y="51">accept(Visitor)</text>
		</g>
		<g transform="translate(280,310)">
			<rect x="0" y="0" width="240" height="60" class="yellow" />
			<text x="120" y="21" text-anchor="middle" font-weight="bold">ConcreteElementB</text>
			<line x1="0" y1="28" x2="240" y2="28" />
			<text x="13" y="51" text-anchor="middle">+</text>
			<text x="30" y="51">accept(Visitor)</text>
		</g>
		<g transform="translate(430,190)">
			<rect x="0" y="0" width="280" height="90" class="yellow" />
			<text x="140" y="21" text-anchor="middle" font-weight="bold">ConcreteVisitor1</text>
			<line x1="0" y1="28" x2="280" y2="28" />
			<text x="13" y="51" text-anchor="middle">+</text>
			<text x="30" y="51">visit(ConcreteElementA)</text>
			<text x="13" y="81" text-anchor="middle">+</text>
			<text x="30" y="81">visit(ConcreteElementB)</text>
		</g>
		<g transform="translate(740,190)">
			<rect x="0" y="0" width="280" height="90" class="yellow" />
			<text x="140" y="21" text-anchor="middle" font-weight="bold">ConcreteVisitor2</text>
			<line x1="0" y1="28" x2="280" y2="28" />
			<text x="13" y="51" text-anchor="middle">+</text>
			<text x="30" y="51">visit(ConcreteElementA)</text>
			<text x="13" y="81" text-anchor="middle">+</text>
			<text x="30" y="81">visit(ConcreteElementB)</text>
		</g>
		<path d="m265,280l0,-30" class="dotted" fill="transparent" stroke-width="2" marker-end="url(#closed-triangle)"  />
		<path d="m130,310l0,-30l270,0l0,30" class="dotted" fill="transparent" stroke-width="2" />
		<path d="m725,160l0,-30" class="dotted" fill="transparent" stroke-width="2" marker-end="url(#closed-triangle)"  />
		<path d="m570,190l0,-30l310,0l0,30" class="dotted" fill="transparent" stroke-width="2" />
		<path d="m265,85l0,75" class="dotted" fill="transparent" stroke-width="2" marker-end="url(#arrow)" />
		<path d="m315,70l270,0" class="dotted" fill="transparent" stroke-width="2" marker-end="url(#arrow)" />
	</g>
</svg>
