<svg xmlns="http://www.w3.org/2000/svg" width="24" height="24" viewBox="100 100 280 280"><path d="M370.38 327.999l-41.203-41.203c-7.585-7.595-18.232-10.255-27.97-7.992l-15.386-15.367c12.34-16.901 19.63-37.726 19.63-60.257.007-56.492-45.805-102.289-102.305-102.289s-102.297 45.797-102.297 102.289c0 56.508 45.798 102.305 102.298 102.305 22.603 0 43.492-7.338 60.425-19.753l15.307 15.296c-2.32 9.772.328 20.479 7.955 28.104l41.211 41.211c11.703 11.688 30.633 11.688 42.336 0 11.694-11.702 11.694-30.655-.001-42.344zm-167.266-54.016c-39.117 0-70.828-31.703-70.828-70.828 0-39.117 31.711-70.82 70.828-70.82 39.102 0 70.828 31.72 70.828 70.82.001 39.117-31.726 70.828-70.828 70.828z" fill="#2D2D39"/></svg>