<svg width="24" height="24" xmlns="http://www.w3.org/2000/svg" viewBox="74 70 252 252"><path d="M200.305 69.729c4.905 0 36.202 71.793 40.17 74.676 3.968 2.883 81.919 10.463 83.434 15.128 1.516 4.665-57.092 56.615-58.608 61.28-1.516 4.665 15.364 81.142 11.395 84.026-3.968 2.883-71.487-36.803-76.392-36.803-4.905 0-72.423 39.686-76.392 36.803-3.968-2.883 12.911-79.361 11.395-84.026-1.516-4.665-60.124-56.615-58.608-61.28 1.516-4.665 79.466-12.245 83.434-15.128 3.968-2.883 35.265-74.676 40.17-74.676z" fill="#2D2D39"/></svg>