<svg width="370" height="180" xmlns="http://www.w3.org/2000/svg"><style>ellipse.red { fill: hsl(0,100%,80%); } ellipse.yellow { fill: hsl(60,100%,80%); } ellipse.green { fill: hsl(120,100%,80%); } ellipse.teal { fill: hsl(180,100%,80%); } ellipse.blue { fill: hsl(240,100%,80%); } ellipse.purple { fill: hsl(300,100%,80%); } line, path { stroke-width: 2; stroke: #000; } marker path, path path { stroke-width: 0; } text { text-anchor: middle; font-family: Helvetica, Arial, sans-serif; font-size: 22px; fill: #000; } text.small { font-size: 14px; font-weight:bold; } ellipse { stroke-width: 2; stroke: #000; fill: #FFF } path { stroke: #000; }</style><marker id="arrow" viewBox="0 0 10 10" refX="7" refY="5" markerWidth="4" markerHeight="4" orient="auto"><path d="M0 0l10 5-10 5"/></marker><g transform="translate(100 30)"><path d="M0 0l-30 50" fill="none"/><path d="M0 0l15 25" fill="none"/><ellipse ry="20" rx="20" class="blue"/><text y="7">c</text><text x="20" y="40.333">g</text></g><g transform="translate(70 80)"><path d="M0 0l-30 50" fill="none"/><path d="M0 0l15 25" fill="none"/><ellipse ry="20" rx="20" class="green"/><text y="7">b</text><text x="20" y="40.333">f</text></g><g transform="translate(40 130)"><path d="M0 0l-15 25" fill="none"/><path d="M0 0l15 25" fill="none"/><ellipse ry="20" rx="20" class="red"/><text y="7">a</text><text x="-20" y="40.333">d</text><text x="20" y="40.333">e</text></g><g transform="translate(260 30)"><path d="M0 0l30 50" fill="none"/><path d="M0 0l-15 25" fill="none"/><ellipse ry="20" rx="20" class="red"/><text y="7">a</text><text x="-20" y="40.333">d</text></g><g transform="translate(290 80)"><path d="M0 0l30 50" fill="none"/><path d="M0 0l-15 25" fill="none"/><ellipse ry="20" rx="20" class="green"/><text y="7">b</text><text x="-20" y="40.333">e</text></g><g transform="translate(320 130)"><path d="M0 0l-15 25" fill="none"/><path d="M0 0l15 25" fill="none"/><ellipse ry="20" rx="20" class="blue"/><text y="7">c</text><text x="-20" y="40.333">f</text><text x="20" y="40.333">g</text></g><text x="190" y="32" class="small" transform="translate(-10 30)">zigzig(a)</text><path marker-end="url(#arrow)" d="M130 70h97"/><text x="190" y="82" class="small" transform="translate(-10 30)">zigzig(c)</text><path marker-end="url(#arrow)" d="M230 120h-97"/></svg>