<svg width="300" height="130" xmlns="http://www.w3.org/2000/svg"><style>ellipse.red { fill: hsl(0,100%,80%); } ellipse.yellow { fill: hsl(60,100%,80%); } ellipse.green { fill: hsl(120,100%,80%); } ellipse.teal { fill: hsl(180,100%,80%); } ellipse.blue { fill: hsl(240,100%,80%); } ellipse.purple { fill: hsl(300,100%,80%); } line, path { stroke-width: 2; stroke: #000; } marker path, path path { stroke-width: 0; } text { text-anchor: middle; font-family: Helvetica, Arial, sans-serif; font-size: 22px; fill: #000; } text.small { font-size: 14px; font-weight:bold; } ellipse { stroke-width: 2; stroke: #000; fill: #FFF } path { stroke: #000; }</style><marker id="arrow" viewBox="0 0 10 10" refX="7" refY="5" markerWidth="4" markerHeight="4" orient="auto"><path d="M0 0l10 5-10 5"/></marker><g transform="translate(70 30)"><path d="M0 0l-30 50" fill="none"/><path d="M0 0l15 25" fill="none"/><ellipse ry="20" rx="20" class="teal"/><text y="7">b</text><text x="20" y="40.333">e</text></g><g transform="translate(40 80)"><path d="M0 0l-15 25" fill="none"/><path d="M0 0l15 25" fill="none"/><ellipse ry="20" rx="20" class="red"/><text y="7">a</text><text x="-20" y="40.333">c</text><text x="20" y="40.333">d</text></g><g transform="translate(230 30)"><path d="M0 0l30 50" fill="none"/><path d="M0 0l-15 25" fill="none"/><ellipse ry="20" rx="20" class="red"/><text y="7">a</text><text x="-20" y="40.333">c</text></g><g transform="translate(260 80)"><path d="M0 0l-15 25" fill="none"/><path d="M0 0l15 25" fill="none"/><ellipse ry="20" rx="20" class="teal"/><text y="7">b</text><text x="-20" y="40.333">d</text><text x="20" y="40.333">e</text></g><text x="150" y="32" class="small">zig(a)</text><path marker-end="url(#arrow)" d="M100 40h97"/><text x="150" y="82" class="small">zig(b)</text><path marker-end="url(#arrow)" d="M200 90h-97"/></svg>