<?xml version="1.0" standalone="yes"?>
<svg width="200" height="190" version="1.1" xmlns="http://www.w3.org/2000/svg">
	<style>
		rect, path, line { stroke: #000; stroke-width: 2; }
		.red { fill: hsl(0,100%,80%); }
		.yellow { fill: hsl(60,100%,80%); }
		.green { fill: hsl(120,100%,80%); }
		.teal { fill: hsl(180,100%,80%); }
		.blue { fill: hsl(240,100%,80%); }
		.purple { fill: hsl(300,100%,80%); }
		line { stroke-width: 2; }
		.l-red { stroke: hsl(0,75%,40%); }
		.l-yellow { stroke: hsl(60,75%,40%); }
		.l-green { stroke: hsl(120,75%,40%); }
		.l-teal { stroke: hsl(180,75%,40%); }
		.l-blue { stroke: hsl(240,75%,40%); }
		.l-purple { stroke: hsl(300,75%,40%); }
		text { text-anchor: middle; font-family: Helvetica, Arial, sans-serif; font-size: 22px; fill: #000; }
		.algorithm { fill: #FFF; }
		marker path, path path { stroke-width: 1; }
	</style>
	<marker id="arrow" viewBox="-1 0 12 10" refX="10.5" refY="5" markerWidth="8" markerHeight="8" orient="auto">
		<path d="M 0 0 L 10 5 L 0 10" fill="transparent"/>
	</marker>
	<g transform="translate(40,0)">
		<g transform="translate(10,10)">
			<line y1="30" x1="50" y2="140" x2="50" marker-end="url(#arrow)" />
			<rect height="30" width="20" x="0" class="teal" />
			<rect height="30" width="20" x="20" class="green" />
			<rect height="30" width="20" x="40" class="blue" />
			<rect height="30" width="20" x="60"  class="yellow" />
			<rect height="30" width="20" x="80" class="red" />
			<text y="23" x="10">4</text>
			<text y="23" x="30">3</text>
			<text y="23" x="50">5</text>
			<text y="23" x="70">2</text>
			<text y="23" x="90">1</text>
		</g>
		<g transform="translate(10,150)">
			<rect height="30" width="20" x="0"  class="red" />
			<rect height="30" width="20" x="20" class="yellow" />
			<rect height="30" width="20" x="40" class="green" />
			<rect height="30" width="20" x="60" class="teal" />
			<rect height="30" width="20" x="80" class="blue" />
			<text y="23" x="10">1</text>
			<text y="23" x="30">2</text>
			<text y="23" x="50">3</text>
			<text y="23" x="70">4</text>
			<text y="23" x="90">5</text>
		</g>
	</g>
	<path d="M10,70l180,0l0,40l-180,0z" />
	<text x="100" y="98" class="algorithm">Algorithm</text>
</svg>
